<svg width="114" height="139" viewBox="0 0 114 139" fill="none" xmlns="http://www.w3.org/2000/svg">
<g clip-path="url(#clip0_1_1705)">
<path d="M110.09 58.27C102.96 31.6 89.05 18.71 78.56 12.58C78.54 12.57 78.51 12.55 78.49 12.54C79.39 15.07 80.21 17.88 80.82 20.95C80.83 20.98 80.83 21.01 80.84 21.04C80.87 21.06 80.9 21.08 80.93 21.11C94.54 31.54 101.25 47.53 104.52 59.76C109.27 77.49 108.56 92.31 105.73 103.97C103.68 112.51 100.49 119.36 97.49 124.43C96.01 126.91 94.59 128.96 93.36 130.58C93.15 130.86 92.94 131.13 92.74 131.39C91.81 132.57 90.27 132.98 88.9 132.39C88.54 132.24 88.16 132.07 87.75 131.88C85.91 131.05 83.59 129.91 80.97 128.4C76.96 126.1 72.23 122.93 67.43 118.71C67.42 118.71 67.42 118.7 67.42 118.7C61.7 113.69 55.89 107.2 51.05 98.9C51.02 98.84 50.98 98.79 50.95 98.73L50.94 98.74C49.45 100.09 47.96 101.33 46.47 102.49C46.5 102.55 46.53 102.6 46.57 102.66C59.59 124.35 78.8 134.34 86.64 137.69C87.78 138.18 88.97 138.41 90.15 138.41C92.86 138.41 95.52 137.18 97.27 134.95C104.75 125.43 120.96 98.91 110.09 58.27Z" fill="#FF5C00"/>
<path d="M65.9799 1.37C65.3999 0.63 64.5599 0.17 63.6599 0.11C62.5399 0.04 61.4299 0 60.3399 0C31.8299 0 15.4899 25.09 8.15992 40.45C1.57992 54.24 -0.310084 67.38 0.0399164 78.66C0.0599164 79.49 0.0999164 80.31 0.149916 81.11C0.929916 94.26 4.62992 104.63 7.06992 110.19C7.69992 111.6 9.09992 112.41 10.5599 112.2C21.4999 110.61 48.8999 103.14 66.8899 68.2C71.6799 58.9 85.7699 26.57 65.9799 1.37ZM71.2999 37.94L70.1299 40.24C69.3899 41.7 68.2799 42.9 66.9399 43.75C70.0899 46.78 71.0399 51.69 68.9599 55.79C67.9399 57.82 66.3199 59.4 64.3199 60.35C65.8599 63.21 66.0199 66.77 64.4499 69.87C63.2099 72.32 61.1099 74.11 58.5299 74.93C57.7199 75.19 56.8899 75.34 56.0499 75.38C56.6999 77.76 56.5099 80.39 55.3099 82.75C54.0799 85.19 51.9799 86.99 49.3999 87.81C48.4199 88.12 47.4099 88.28 46.4099 88.28C45.8899 88.28 45.3499 88.24 44.8399 88.14C44.8299 89.49 44.5099 90.87 43.8699 92.13L42.6999 94.44C41.6199 96.57 39.7999 98.13 37.5399 98.85C36.6799 99.13 35.7999 99.25 34.9199 99.25C34.2799 99.25 33.6399 99.18 33.0099 99.03C30.4599 102.07 26.5499 103.7 22.3199 103.7C19.5399 103.7 16.6299 103 13.8599 101.53C6.88992 97.84 3.26992 90.54 4.86992 84.12C3.40992 82.8 2.44992 81.01 2.10992 79.1C1.95992 78.32 1.91992 77.52 1.99992 76.72C2.08992 75.61 2.39992 74.5 2.91992 73.45L4.08992 71.15C4.73992 69.88 5.65992 68.8 6.77992 67.99C3.79992 64.95 2.93992 60.18 4.96992 56.17C6.13992 53.86 8.07992 52.12 10.4699 51.26C8.59992 48.3 8.28992 44.44 9.97992 41.1C11.2099 38.65 13.3099 36.86 15.8899 36.04C16.4799 35.86 17.0799 35.72 17.6799 35.65C17.2899 33.53 17.5699 31.27 18.6199 29.2C19.8499 26.76 21.9499 24.96 24.5299 24.14C26.1399 23.64 27.7999 23.55 29.3999 23.87C29.3099 22.31 29.5999 20.73 30.3499 19.25L31.5199 16.95C32.5999 14.81 34.4299 13.25 36.6799 12.54C38.1099 12.08 39.5899 12 41.0099 12.3C42.5199 10.24 44.6599 8.66 47.2399 7.76C51.4699 6.27 56.3999 6.76 60.7599 9.06C65.1099 11.38 68.3199 15.2 69.5799 19.58C70.3399 22.25 70.2999 24.93 69.4999 27.38C72.2699 30.03 73.1199 34.33 71.2999 37.93V37.94Z" fill="#FF5C00"/>
<path d="M67.3099 118.54C61.5899 113.53 55.7799 107.04 50.9399 98.74C52.4799 97.36 54.0099 95.87 55.5299 94.28C59.2599 104.05 63.5699 112.29 67.3099 118.54Z" fill="#FF5C00"/>
<path d="M87.6401 131.72C85.8001 130.89 83.4801 129.75 80.8601 128.24C80.8601 128.23 80.8501 128.22 80.8401 128.21C80.7201 128.05 68.2101 112.66 59.8601 89.41C63.9101 84.52 67.8001 78.79 71.3501 72.09L87.6401 131.72Z" fill="#FF5C00"/>
<path d="M105.62 103.81C106.02 74.52 93.7501 49.82 82.0201 32.99C82.0101 28.62 81.5601 24.6 80.8201 20.95C94.4301 31.38 101.14 47.37 104.41 59.6C109.16 77.33 108.45 92.15 105.62 103.81Z" fill="#FF5C00"/>
<path d="M97.3799 124.27C95.8999 126.75 94.4799 128.8 93.2499 130.42L75.1599 64.18C78.5299 56.34 80.4699 49.09 81.3799 42.47C93.8199 62.39 105 91.15 97.3799 124.27Z" fill="#FF5C00"/>
<path d="M55.3401 27.04C55.3401 27 55.3401 26.97 55.3301 26.93C55.3401 26.91 55.3301 26.89 55.3201 26.86C55.3001 26.72 55.2801 26.59 55.2501 26.45C55.2001 26.24 55.1201 26.03 55.0301 25.83C54.6701 25.03 54.0401 24.34 53.1701 23.9C52.3301 23.47 51.4001 23.37 50.5601 23.56C50.4301 23.58 50.2901 23.62 50.1701 23.67C50.1401 23.67 50.1001 23.69 50.0601 23.7C50.0201 23.71 49.9901 23.73 49.9601 23.74C49.9401 23.74 49.9201 23.74 49.9101 23.75C49.8901 23.76 49.8701 23.76 49.8601 23.77C49.6501 23.86 49.4601 23.97 49.2701 24.1C49.0701 24.23 48.8701 24.39 48.6901 24.56C48.6001 24.64 48.5201 24.72 48.4401 24.82C48.3601 24.91 48.2901 25.01 48.2101 25.11C48.2101 25.12 48.2001 25.13 48.1901 25.14C48.1901 25.14 48.1901 25.14 48.1901 25.15C48.0901 25.28 48.0101 25.43 47.9201 25.58L46.7301 27.94C46.6201 28.16 46.5201 28.39 46.4201 28.62C46.3501 28.79 46.2801 28.96 46.2401 29.13C46.2201 29.16 46.2101 29.19 46.2101 29.23C46.1701 29.31 46.1501 29.39 46.1301 29.48C46.0701 29.65 46.0201 29.84 45.9801 30.03C45.9701 30.03 45.9701 30.04 45.9701 30.05C45.9601 30.09 45.9601 30.13 45.9501 30.17C45.9401 30.2 45.9401 30.23 45.9301 30.27C45.9001 30.39 45.8801 30.51 45.8701 30.63C45.8601 30.67 45.8501 30.71 45.8501 30.75C45.8701 30.75 45.9001 30.75 45.9201 30.74C46.1201 30.73 46.3201 30.72 46.5301 30.7C46.9701 30.66 47.4001 30.61 47.8401 30.57C48.1701 30.54 48.4901 30.72 48.7201 30.93C48.9601 31.15 49.0701 31.49 49.0801 31.81C49.0801 31.87 49.0701 31.93 49.0601 31.98C49.2101 31.83 49.3901 31.7 49.5901 31.63C49.8901 31.53 50.2801 31.6 50.5501 31.76C50.8301 31.92 51.0301 32.2 51.1201 32.5C51.1301 32.54 51.1501 32.57 51.1601 32.61C51.2201 32.74 51.2801 32.87 51.3501 33C51.4301 33.14 51.5001 33.29 51.5901 33.42C51.6901 33.57 51.8101 33.7 51.9001 33.85C51.9201 33.88 51.9301 33.91 51.9501 33.94C51.9601 33.93 51.9601 33.93 51.9701 33.92L52.0001 33.93C52.7101 33.25 53.3001 32.44 53.7601 31.55L54.9401 29.19C55.0201 29.05 55.0801 28.9 55.1401 28.76C55.2301 28.49 55.2901 28.23 55.3201 27.96C55.3401 27.87 55.3501 27.77 55.3501 27.69C55.3701 27.47 55.3601 27.26 55.3401 27.04Z" fill="#FF5C00"/>
<path d="M55.3401 27.04C55.3401 27 55.3401 26.97 55.3301 26.93C55.3401 26.91 55.3301 26.89 55.3201 26.86C55.3001 26.72 55.2801 26.59 55.2501 26.45C55.2001 26.24 55.1201 26.03 55.0301 25.83C54.6701 25.03 54.0401 24.34 53.1701 23.9C52.3301 23.47 51.4001 23.37 50.5601 23.56C50.4301 23.58 50.2901 23.62 50.1701 23.67C50.1401 23.67 50.1001 23.69 50.0601 23.7C50.0201 23.71 49.9901 23.73 49.9601 23.74C49.9401 23.74 49.9201 23.74 49.9101 23.75C49.8901 23.76 49.8701 23.76 49.8601 23.77C49.6501 23.86 49.4601 23.97 49.2701 24.1C49.0701 24.23 48.8701 24.39 48.6901 24.56C48.6001 24.64 48.5201 24.72 48.4401 24.82C48.3601 24.91 48.2901 25.01 48.2101 25.11C48.2101 25.12 48.2001 25.13 48.1901 25.14C48.1901 25.14 48.1901 25.14 48.1901 25.15C48.0901 25.28 48.0101 25.43 47.9201 25.58L46.7301 27.94C46.6201 28.16 46.5201 28.39 46.4201 28.62C46.3501 28.79 46.2801 28.96 46.2401 29.13C46.2201 29.16 46.2101 29.19 46.2101 29.23C46.1701 29.31 46.1501 29.39 46.1301 29.48C46.0701 29.65 46.0201 29.84 45.9801 30.03C45.9701 30.03 45.9701 30.04 45.9701 30.05C45.9601 30.09 45.9601 30.13 45.9501 30.17C45.9401 30.2 45.9401 30.23 45.9301 30.27C45.9001 30.39 45.8801 30.51 45.8701 30.63C45.8601 30.67 45.8501 30.71 45.8501 30.75C45.8701 30.75 45.9001 30.75 45.9201 30.74C46.1201 30.73 46.3201 30.72 46.5301 30.7C46.9701 30.66 47.4001 30.61 47.8401 30.57C48.1701 30.54 48.4901 30.72 48.7201 30.93C48.9601 31.15 49.0701 31.49 49.0801 31.81C49.0801 31.87 49.0701 31.93 49.0601 31.98C49.2101 31.83 49.3901 31.7 49.5901 31.63C49.8901 31.53 50.2801 31.6 50.5501 31.76C50.8301 31.92 51.0301 32.2 51.1201 32.5C51.1301 32.54 51.1501 32.57 51.1601 32.61C51.2201 32.74 51.2801 32.87 51.3501 33C51.4301 33.14 51.5001 33.29 51.5901 33.42C51.6901 33.57 51.8101 33.7 51.9001 33.85C51.9201 33.88 51.9301 33.91 51.9501 33.94C51.9601 33.93 51.9601 33.93 51.9701 33.92L52.0001 33.93C52.7101 33.25 53.3001 32.44 53.7601 31.55L54.9401 29.19C55.0201 29.05 55.0801 28.9 55.1401 28.76C55.2301 28.49 55.2901 28.23 55.3201 27.96C55.3401 27.87 55.3501 27.77 55.3501 27.69C55.3701 27.47 55.3601 27.26 55.3401 27.04Z" fill="#FF5C00"/>
<path d="M26.9202 79.54C26.9102 79.53 26.9002 79.52 26.8902 79.5C26.7402 79.41 26.5902 79.32 26.4302 79.25C26.3302 79.2 26.2202 79.15 26.1202 79.1C26.0902 79.08 26.0802 79.08 26.0702 79.07C26.0702 79.07 26.0702 79.07 26.0502 79.06C25.8402 78.97 25.6302 78.89 25.4202 78.8C25.1902 78.7 24.9702 78.6 24.7502 78.5C24.7202 78.48 24.5502 78.42 24.6402 78.45C24.6102 78.44 24.5802 78.43 24.5702 78.42C23.8502 78.12 23.0202 77.83 22.5002 77.21C22.4202 77.27 22.3402 77.34 22.2602 77.42C22.0902 77.58 21.9102 77.77 21.7502 77.95C21.7402 77.96 21.7302 77.97 21.7202 77.99C21.4202 78.32 21.1602 78.69 20.9102 79.07C20.8902 79.1 20.8702 79.13 20.8502 79.16C20.7302 79.38 20.6002 79.6 20.4802 79.82L19.3302 82.12C19.2202 82.34 19.1102 82.57 19.0102 82.79C18.9702 82.92 18.9202 83.03 18.8902 83.16C18.8602 83.26 18.8402 83.34 18.8202 83.44C18.8002 83.5 18.7902 83.55 18.7802 83.61C18.7602 83.7 18.7502 83.8 18.7402 83.91C18.7302 84.02 18.7202 84.14 18.7202 84.25C18.7202 84.26 18.7202 84.26 18.7202 84.27V84.31C18.7202 84.44 18.7302 84.59 18.7502 84.72L18.7802 84.92C18.8302 85.22 18.9202 85.52 19.0402 85.81C19.3902 86.63 20.0402 87.34 20.9002 87.79C21.4902 88.08 22.0902 88.22 22.6902 88.22C22.9802 88.22 23.2802 88.19 23.5602 88.11C23.8502 88.05 24.1202 87.96 24.3902 87.83C25.0202 87.52 25.5802 87.03 25.9802 86.38C25.9802 86.37 25.9902 86.37 25.9902 86.36C26.1202 86.16 26.2302 85.95 26.3502 85.73L27.5102 83.42C27.6202 83.21 27.7102 82.99 27.8002 82.78C27.8802 82.61 27.9502 82.43 28.0002 82.25C28.1802 81.75 28.3102 81.23 28.3702 80.71C28.3802 80.68 28.3902 80.64 28.3902 80.6C28.4002 80.51 28.4102 80.42 28.4202 80.33C27.7802 80.38 27.2502 80.08 26.9202 79.54Z" fill="#FF5C00"/>
<path d="M26.9202 79.54C26.9102 79.53 26.9002 79.52 26.8902 79.5C26.7402 79.41 26.5902 79.32 26.4302 79.25C26.3302 79.2 26.2202 79.15 26.1202 79.1C26.0902 79.08 26.0802 79.08 26.0702 79.07C26.0702 79.07 26.0702 79.07 26.0502 79.06C25.8402 78.97 25.6302 78.89 25.4202 78.8C25.1902 78.7 24.9702 78.6 24.7502 78.5C24.7202 78.48 24.5502 78.42 24.6402 78.45C24.6102 78.44 24.5802 78.43 24.5702 78.42C23.8502 78.12 23.0202 77.83 22.5002 77.21C22.4202 77.27 22.3402 77.34 22.2602 77.42C22.0902 77.58 21.9102 77.77 21.7502 77.95C21.7402 77.96 21.7302 77.97 21.7202 77.99C21.4202 78.32 21.1602 78.69 20.9102 79.07C20.8902 79.1 20.8702 79.13 20.8502 79.16C20.7302 79.38 20.6002 79.6 20.4802 79.82L19.3302 82.12C19.2202 82.34 19.1102 82.57 19.0102 82.79C18.9702 82.92 18.9202 83.03 18.8902 83.16C18.8602 83.26 18.8402 83.34 18.8202 83.44C18.8002 83.5 18.7902 83.55 18.7802 83.61C18.7602 83.7 18.7502 83.8 18.7402 83.91C18.7302 84.02 18.7202 84.14 18.7202 84.25C18.7202 84.26 18.7202 84.26 18.7202 84.27V84.31C18.7202 84.44 18.7302 84.59 18.7502 84.72L18.7802 84.92C18.8302 85.22 18.9202 85.52 19.0402 85.81C19.3902 86.63 20.0402 87.34 20.9002 87.79C21.4902 88.08 22.0902 88.22 22.6902 88.22C22.9802 88.22 23.2802 88.19 23.5602 88.11C23.8502 88.05 24.1202 87.96 24.3902 87.83C25.0202 87.52 25.5802 87.03 25.9802 86.38C25.9802 86.37 25.9902 86.37 25.9902 86.36C26.1202 86.16 26.2302 85.95 26.3502 85.73L27.5102 83.42C27.6202 83.21 27.7102 82.99 27.8002 82.78C27.8802 82.61 27.9502 82.43 28.0002 82.25C28.1802 81.75 28.3102 81.23 28.3702 80.71C28.3802 80.68 28.3902 80.64 28.3902 80.6C28.4002 80.51 28.4102 80.42 28.4202 80.33C27.7802 80.38 27.2502 80.08 26.9202 79.54Z" fill="#FF5C00"/>
<path d="M34.9301 65.14C34.8001 64.34 34.5801 63.56 34.2801 62.82C34.1701 62.56 34.0601 62.31 33.9301 62.07C33.5001 61.23 32.9601 60.44 32.3001 59.75C32.4401 60.61 32.6801 61.44 33.0201 62.22C32.7601 62.28 32.5001 62.35 32.2401 62.44C31.7901 62.58 31.3601 62.75 30.9401 62.95C30.1601 63.32 29.4401 63.79 28.7901 64.33C29.6001 65.67 29.7301 67.4 28.9701 68.9C28.4101 69.99 27.4901 70.78 26.3501 71.14C26.0001 71.25 25.6301 71.32 25.2601 71.33C25.2301 71.57 25.2401 71.81 25.2401 72.05C25.8201 71.89 26.4701 72.13 26.8001 72.7C26.8801 72.83 26.9201 72.97 26.9501 73.12C27.0101 73.13 27.0601 73.13 27.1201 73.14C27.5501 73.2 27.9601 73.37 28.2701 73.68C28.3001 73.71 28.3201 73.75 28.3501 73.79C28.4501 73.43 28.7001 73.13 29.0601 72.98C29.5501 72.77 30.0301 72.9 30.4201 73.24C30.6801 73.46 30.8601 73.76 30.9901 74.07C31.0001 74.09 31.0001 74.09 31.0001 74.1C31.0801 74.19 31.1501 74.29 31.2201 74.38C31.2301 74.4 31.2401 74.42 31.2601 74.44C31.2801 74.47 31.3001 74.51 31.3201 74.55C31.3401 74.57 31.3601 74.59 31.3801 74.61C31.3901 74.62 31.4001 74.63 31.4101 74.65C31.4401 74.63 31.4701 74.61 31.4901 74.59C32.5001 73.72 33.3401 72.65 33.9601 71.43C34.5801 70.2 34.9301 68.89 35.0201 67.58C35.1101 66.77 35.0701 65.94 34.9301 65.14Z" fill="#FF5C00"/>
<path d="M28.7901 64.33C27.7801 65.2 26.9401 66.27 26.3201 67.5C25.7001 68.72 25.3501 70.03 25.2601 71.33C24.5101 71.37 23.7501 71.2 23.0701 70.84L11.8601 64.9C9.67011 63.74 8.83011 60.96 9.97011 58.7C10.5201 57.61 11.4501 56.81 12.5801 56.45C13.6701 56.1 14.8401 56.21 15.8601 56.76L27.0701 62.7C27.8001 63.09 28.3801 63.66 28.7901 64.33Z" fill="#FF5C00"/>
<path d="M36.5401 62.06C35.6801 61.94 34.8001 61.94 33.9301 62.07C33.6301 62.1 33.3301 62.16 33.0201 62.22C32.7601 62.28 32.5001 62.35 32.2401 62.44C31.7901 62.58 31.3601 62.75 30.9401 62.95C30.1601 63.32 29.4401 63.79 28.7901 64.33C27.7801 65.2 26.9401 66.27 26.3201 67.5C25.7001 68.72 25.3501 70.03 25.2601 71.33C25.2301 71.57 25.2401 71.81 25.2401 72.05C25.8201 71.89 26.4701 72.13 26.8001 72.7C26.8801 72.83 26.9201 72.97 26.9501 73.12C27.0101 73.13 27.0601 73.13 27.1201 73.14C27.5501 73.2 27.9601 73.37 28.2701 73.68C28.3001 73.71 28.3201 73.75 28.3501 73.79C28.4501 73.43 28.7001 73.13 29.0601 72.98C29.5501 72.77 30.0301 72.9 30.4201 73.24C30.6801 73.46 30.8601 73.76 30.9901 74.07C31.0001 74.09 31.0001 74.09 31.0001 74.1C31.0801 74.19 31.1501 74.29 31.2201 74.38C31.2301 74.4 31.2401 74.42 31.2601 74.44C31.2801 74.47 31.3001 74.51 31.3201 74.55C31.3401 74.57 31.3601 74.59 31.3801 74.61C31.3901 74.62 31.4001 74.63 31.4101 74.65C31.4401 74.63 31.4701 74.61 31.4901 74.59C30.6801 73.26 30.5501 71.52 31.3101 70.03C31.8701 68.94 32.7901 68.14 33.9301 67.78C34.2801 67.66 34.6501 67.59 35.0201 67.58C35.1001 66.77 35.0601 65.94 34.9201 65.14C34.7901 64.34 34.5701 63.56 34.2701 62.82C34.5901 62.76 34.9101 62.67 35.2301 62.57C35.6901 62.43 36.1201 62.26 36.5401 62.06Z" fill="#FF5C00"/>
<path d="M50.3102 80.22C49.7702 81.31 48.8302 82.11 47.7102 82.47C46.6102 82.82 45.4402 82.71 44.4202 82.17L33.2202 76.22C32.4902 75.83 31.9102 75.26 31.5002 74.59C32.5102 73.72 33.3502 72.65 33.9702 71.43C34.5902 70.2 34.9402 68.89 35.0302 67.58C35.7802 67.55 36.5302 67.71 37.2202 68.08L48.4302 74.02C50.6002 75.18 51.4602 77.96 50.3102 80.22Z" fill="#FF5C00"/>
<path d="M21.6401 42.09C22.0301 42.39 22.4501 42.65 22.8901 42.88L34.0801 48.83C34.3601 48.97 34.6401 49.11 34.9201 49.22C34.7201 49.06 34.4901 48.91 34.2601 48.79L21.6401 42.09Z" fill="#FF5C00"/>
<path d="M48.3502 40.59C48.1702 40.63 48.0302 40.63 47.8602 40.64C47.8302 40.64 47.7902 40.64 47.7602 40.64C47.5202 40.71 46.8502 40.98 46.7702 41.01C46.3902 41.13 45.9802 41.26 45.5802 41.26C44.9402 41.27 44.3902 40.93 44.0402 40.4C43.8402 40.1 43.7302 39.74 43.6202 39.4C43.5602 39.32 43.5502 39.29 43.5602 39.29C43.5502 39.28 43.5502 39.27 43.5402 39.26C43.5402 39.25 43.5302 39.25 43.5302 39.24C43.4702 39.16 43.4102 39.08 43.3502 39.01C43.2302 38.85 43.1202 38.7 43.0402 38.52C43.0002 38.43 42.9602 38.34 42.9302 38.25C42.9002 38.2 42.8802 38.15 42.8502 38.1C42.7102 37.85 42.5802 37.6 42.4602 37.34C42.4502 37.35 42.4402 37.35 42.4302 37.36C43.2402 38.69 43.3602 40.41 42.6002 41.91C42.0402 43 41.1202 43.8 39.9902 44.16C39.6202 44.27 39.2602 44.34 38.8902 44.35C38.4202 44.38 37.9602 44.32 37.5002 44.18C37.9902 44.48 38.4302 44.82 38.8502 45.21C38.8602 46.27 39.0302 47.33 39.3502 48.33C39.2902 48.34 39.2402 48.36 39.1802 48.38C38.2002 48.69 37.3002 49.14 36.4802 49.7C37.2102 49.88 37.9502 49.96 38.7002 49.96C39.1202 49.96 39.5602 49.93 39.9902 49.88C40.5602 49.8 41.1302 49.67 41.6802 49.5H41.6902C42.6602 49.19 43.5702 48.74 44.3802 48.17C44.6402 47.99 44.8802 47.8 45.1302 47.59C46.1402 46.73 46.9802 45.67 47.6002 44.44C48.2202 43.21 48.5702 41.91 48.6602 40.6C48.6602 40.56 48.6602 40.52 48.6602 40.48C48.5702 40.53 48.4602 40.57 48.3502 40.59Z" fill="#FF5C00"/>
<path d="M42.4401 37.38C41.4301 38.23 40.5901 39.3 39.9701 40.53C39.3501 41.76 39.0001 43.07 38.9001 44.37C38.4301 44.4 37.9701 44.34 37.5101 44.2C37.3101 44.07 37.1001 43.95 36.8901 43.84L24.7001 37.37C23.1301 36.02 22.6201 33.68 23.6201 31.73C24.1601 30.64 25.1001 29.84 26.2201 29.48C26.6501 29.35 27.0801 29.29 27.5201 29.29C28.2001 29.29 28.8801 29.46 29.5101 29.79L40.7101 35.73C41.4501 36.12 42.0301 36.69 42.4401 37.38Z" fill="#FF5C00"/>
<path d="M48.3501 40.59C48.1701 40.63 48.0301 40.63 47.8601 40.64C47.8301 40.64 47.7901 40.64 47.7601 40.64C47.5201 40.71 46.8501 40.98 46.7701 41.01C46.3901 41.13 45.9801 41.26 45.5801 41.26C44.9401 41.27 44.3901 40.93 44.0401 40.4C43.8401 40.1 43.7301 39.74 43.6201 39.4C43.5601 39.32 43.5501 39.29 43.5601 39.29C43.5501 39.28 43.5501 39.27 43.5401 39.26C43.5401 39.25 43.5301 39.25 43.5301 39.24C43.4701 39.16 43.4101 39.08 43.3501 39.01C43.2301 38.85 43.1201 38.7 43.0401 38.52C43.0001 38.43 42.9601 38.34 42.9301 38.25C42.9001 38.2 42.8801 38.15 42.8501 38.1C42.7101 37.85 42.5801 37.6 42.4601 37.34C42.4501 37.35 42.4401 37.35 42.4301 37.36C41.4201 38.21 40.5801 39.28 39.9601 40.51C39.3401 41.74 39.0001 43.07 38.9001 44.37C38.8701 44.65 38.8601 44.94 38.8601 45.23C38.8701 46.29 39.0401 47.35 39.3601 48.35C39.5301 48.88 39.7501 49.4 40.0001 49.9C40.5501 51 41.3101 52 42.2601 52.83C42.2501 51.7 42.0601 50.58 41.7001 49.52C42.6701 49.21 43.5801 48.76 44.3901 48.19C44.9701 48.32 45.5501 48.51 46.1001 48.75C45.7101 48.43 45.3901 48.04 45.1401 47.61C44.3301 46.28 44.2101 44.56 44.9701 43.06C45.5201 41.98 46.4501 41.18 47.5801 40.82C47.9301 40.7 48.3001 40.63 48.6701 40.62C48.6701 40.58 48.6701 40.54 48.6701 40.5C48.5701 40.53 48.4601 40.57 48.3501 40.59Z" fill="#FF5C00"/>
<path d="M44.1702 54.04C43.9402 53.91 43.7002 53.82 43.4402 53.74C43.7002 53.91 43.9602 54.07 44.2302 54.22L55.4402 60.16C55.9102 60.4 56.3802 60.62 56.8702 60.77L44.1702 54.04Z" fill="#FF5C00"/>
<path d="M63.9601 53.26C63.4101 54.35 62.4801 55.15 61.3601 55.51C60.6001 55.75 59.8001 55.77 59.0501 55.59L59.0301 55.58L46.8001 49.09C46.5701 48.96 46.3301 48.86 46.1001 48.75C45.7101 48.43 45.3901 48.04 45.1401 47.61C46.1501 46.75 46.9901 45.69 47.6101 44.46C48.2301 43.23 48.5801 41.93 48.6701 40.62C48.7401 40.61 48.8001 40.61 48.8601 40.61C49.5501 40.61 50.2301 40.78 50.8701 41.12L62.0701 47.06C64.2501 48.22 65.1001 51.01 63.9601 53.26Z" fill="#FF5C00"/>
<path d="M36.8902 43.84L24.7002 37.37C24.9402 37.58 25.2102 37.77 25.5102 37.93L36.7102 43.87C36.9602 44.01 37.2402 44.12 37.5102 44.2C37.3102 44.07 37.1002 43.95 36.8902 43.84ZM41.7002 49.52C41.5202 49 41.3002 48.5 41.0402 48.01C40.5002 46.97 39.7602 46.01 38.8602 45.23C38.8702 46.29 39.0402 47.35 39.3602 48.35C39.3002 48.36 39.2502 48.38 39.1902 48.4C38.2102 48.71 37.3102 49.16 36.4902 49.72C35.9502 49.6 35.4402 49.44 34.9202 49.22C35.2802 49.51 35.5902 49.84 35.8602 50.22C36.7802 51.57 36.9502 53.41 36.1602 54.98C35.6002 56.07 34.6802 56.87 33.5502 57.23C33.1002 57.38 32.6502 57.44 32.2002 57.44C32.1402 58.21 32.1802 58.98 32.3002 59.75C32.4402 60.61 32.6802 61.44 33.0202 62.22C32.7602 62.28 32.5002 62.35 32.2402 62.44C31.7902 62.58 31.3602 62.75 30.9402 62.95C31.3702 63.01 31.8102 63.04 32.2502 63.04C32.6302 63.04 33.0002 63.02 33.3802 62.96C33.6902 62.94 33.9802 62.89 34.2802 62.82C34.6002 62.76 34.9202 62.67 35.2402 62.57C35.6902 62.43 36.1202 62.26 36.5402 62.06C37.2802 61.72 37.9602 61.28 38.5802 60.75C39.6402 59.89 40.5202 58.79 41.1602 57.51C41.8002 56.24 42.1502 54.89 42.2302 53.54C42.2602 53.3 42.2702 53.06 42.2602 52.83C42.2502 51.7 42.0602 50.58 41.7002 49.52Z" fill="#FF5C00"/>
<path d="M35.8601 50.22C34.7901 51.08 33.9201 52.18 33.2801 53.46C32.6401 54.73 32.2801 56.08 32.2001 57.44C31.5401 57.43 30.8601 57.25 30.2601 56.93L16.8701 49.83C14.6801 48.67 13.8401 45.89 14.9801 43.63C15.5301 42.54 16.4601 41.74 17.5901 41.38C18.6801 41.03 19.8501 41.14 20.8701 41.69L21.6401 42.09C22.0301 42.39 22.4501 42.65 22.8901 42.88L34.0801 48.83C34.3601 48.97 34.6401 49.11 34.9201 49.22C35.2801 49.51 35.5901 49.84 35.8601 50.22Z" fill="#FF5C00"/>
<path d="M46.8002 49.09C46.5702 48.96 46.3302 48.86 46.1002 48.75C46.3302 48.94 46.5902 49.12 46.8602 49.26L58.0702 55.21C58.3802 55.37 58.7002 55.49 59.0302 55.58L46.8002 49.09ZM41.7002 49.52C42.6702 49.21 43.5802 48.76 44.3902 48.19C43.2902 47.93 42.1602 47.86 41.0402 48.01C40.4802 48.07 39.9102 48.18 39.3602 48.35C39.3002 48.36 39.2502 48.38 39.1902 48.4C38.2102 48.71 37.3102 49.16 36.4902 49.72C36.2702 49.88 36.0602 50.04 35.8602 50.22C34.7902 51.08 33.9202 52.18 33.2802 53.46C32.6402 54.73 32.2802 56.08 32.2002 57.44C32.1402 58.21 32.1802 58.98 32.3002 59.75C32.4402 60.61 32.6802 61.44 33.0202 62.22C33.1302 62.48 33.2502 62.72 33.3802 62.96C33.7902 63.75 34.3202 64.49 34.9302 65.14C34.8002 64.34 34.5802 63.56 34.2802 62.82C34.6002 62.76 34.9202 62.67 35.2402 62.57C35.6902 62.43 36.1202 62.26 36.5402 62.06C37.2802 61.72 37.9602 61.28 38.5802 60.75C37.6602 59.4 37.4702 57.56 38.2802 55.99C38.8202 54.9 39.7602 54.1 40.8902 53.74C41.3202 53.6 41.7802 53.54 42.2302 53.54C42.6402 53.54 43.0502 53.6 43.4402 53.74C43.0302 53.48 42.6302 53.17 42.2602 52.83C42.2502 51.7 42.0602 50.58 41.7002 49.52Z" fill="#FF5C00"/>
<path d="M59.4501 67.34C58.9001 68.43 57.9701 69.23 56.8401 69.59C55.7401 69.94 54.5701 69.83 53.5501 69.29L40.1701 62.18C39.5101 61.83 38.9801 61.34 38.5801 60.75C39.6401 59.89 40.5201 58.79 41.1601 57.51C41.8001 56.24 42.1501 54.89 42.2301 53.54C42.6401 53.54 43.0501 53.6 43.4401 53.74C43.7001 53.91 43.9601 54.07 44.2301 54.22L55.4401 60.16C55.9101 60.4 56.3801 60.62 56.8701 60.77L57.5601 61.14C59.7401 62.3 60.6001 65.08 59.4501 67.34Z" fill="#FF5C00"/>
<path d="M55.2501 26.45C55.2001 26.24 55.1201 26.03 55.0301 25.83C55.6501 24.87 55.8401 23.69 55.5001 22.57C55.3201 21.97 55.0801 21.4 54.7901 20.87C54.1701 20.92 53.5501 21.06 52.9501 21.25C51.8301 21.63 50.9601 22.49 50.5601 23.56C50.4301 23.87 50.3501 24.2 50.3101 24.54C50.2901 24.73 50.2801 24.92 50.2801 25.12C50.2901 25.67 50.1701 26.23 49.9201 26.71L48.7601 29.01C48.5901 29.35 48.3801 29.64 48.1201 29.87C47.8801 30.11 47.6301 30.29 47.3701 30.42L46.8801 30.67C47.2001 30.64 47.5201 30.6 47.8401 30.57C48.1701 30.54 48.4901 30.72 48.7201 30.93C48.9601 31.15 49.0701 31.49 49.0801 31.81C49.0801 31.87 49.0701 31.93 49.0601 31.98C49.2101 31.83 49.3901 31.7 49.5901 31.63C49.8901 31.53 50.2801 31.6 50.5501 31.76C50.8301 31.92 51.0301 32.2 51.1201 32.5C51.1301 32.54 51.1501 32.57 51.1601 32.61C51.2201 32.74 51.2801 32.87 51.3501 33C51.4301 33.14 51.5001 33.29 51.5901 33.42C51.6901 33.57 51.8101 33.7 51.9001 33.85C51.9201 33.88 51.9301 33.91 51.9501 33.94L51.9701 33.92L52.0001 33.93C52.7101 33.25 53.3001 32.44 53.7601 31.55L54.9401 29.19C55.0201 29.05 55.0801 28.9 55.1401 28.76C55.4701 28.01 55.6801 27.23 55.8001 26.43C55.6201 26.42 55.4301 26.43 55.2501 26.45Z" fill="#FF5C00"/>
<path d="M55.4999 22.57C55.3199 21.97 55.0799 21.4 54.7899 20.87C54.1699 20.92 53.5499 21.06 52.9499 21.25C51.8299 21.63 50.9599 22.49 50.5599 23.56C50.4299 23.58 50.2899 23.62 50.1699 23.67C50.1399 23.67 50.0999 23.69 50.0599 23.7C50.0199 23.71 49.9899 23.73 49.9599 23.74C49.8699 23.56 49.7799 23.39 49.6699 23.24C49.1099 23.78 48.6199 24.43 48.2099 25.11C48.2099 25.12 48.1999 25.13 48.1899 25.14C48.1899 25.14 48.1899 25.14 48.1899 25.15C48.0899 25.28 48.0099 25.43 47.9199 25.58L46.7299 27.94C46.6199 28.16 46.5199 28.39 46.4199 28.62C46.3499 28.79 46.2799 28.96 46.2399 29.13C46.2199 29.16 46.2099 29.19 46.2099 29.23C46.1699 29.31 46.1499 29.39 46.1299 29.48C46.0699 29.65 46.0199 29.84 45.9799 30.03C45.9699 30.03 45.9699 30.04 45.9699 30.05C45.9599 30.09 45.9599 30.13 45.9499 30.17C45.9399 30.2 45.9399 30.23 45.9299 30.27C45.9199 30.35 45.9099 30.43 45.8999 30.51C45.8899 30.55 45.8799 30.59 45.8699 30.63C45.8599 30.67 45.8499 30.71 45.8499 30.75C45.8699 30.75 45.8999 30.75 45.9199 30.74C46.1199 30.73 46.3199 30.72 46.5299 30.7C46.9699 30.66 47.3999 30.61 47.8399 30.57C48.1699 30.54 48.4899 30.72 48.7199 30.93C48.9599 31.15 49.0699 31.49 49.0799 31.81C49.0799 31.87 49.0699 31.93 49.0599 31.98C49.2099 31.83 49.3899 31.7 49.5899 31.63C49.8899 31.53 50.2799 31.6 50.5499 31.76C50.8299 31.92 51.0299 32.2 51.1199 32.5C51.1299 32.54 51.1499 32.57 51.1599 32.61C51.2199 32.74 51.2799 32.87 51.3499 33C51.3999 33.1 51.4599 33.2 51.5199 33.3L51.3999 32.5C51.3499 32.19 51.3499 31.86 51.3999 31.52C51.4499 31.16 51.5599 30.81 51.7299 30.47L52.8899 28.17C53.1399 27.68 53.4899 27.28 53.9299 26.97C54.0799 26.87 54.1999 26.76 54.3299 26.64C54.6099 26.4 54.8499 26.13 55.0299 25.83C55.6499 24.87 55.8399 23.69 55.4999 22.57Z" fill="#FF5C00"/>
<path d="M45.82 30.75C45.83 30.75 45.84 30.75 45.86 30.75C45.86 30.7 45.87 30.67 45.88 30.63C45.89 30.51 45.91 30.39 45.94 30.27C45.95 30.23 45.95 30.2 45.96 30.17C45.97 30.13 45.97 30.09 45.98 30.05C45.98 30.04 45.98 30.03 45.99 30.03C46.03 29.84 46.08 29.65 46.14 29.48C46.16 29.39 46.18 29.31 46.22 29.23C46.22 29.19 46.23 29.16 46.25 29.13C46.29 28.96 46.36 28.79 46.43 28.62C46.53 28.39 46.63 28.16 46.74 27.94L47.93 25.58C48.02 25.43 48.1 25.28 48.2 25.15C48.2 25.14 48.2 25.14 48.2 25.14C48.21 25.13 48.22 25.12 48.22 25.11C48.63 24.43 49.12 23.78 49.68 23.24C49.59 23.11 49.51 23.01 49.4 22.9C49.34 22.83 49.28 22.77 49.21 22.71C49.02 22.53 48.81 22.38 48.57 22.26L40.7 18.08C40.26 17.86 39.78 17.73 39.3 17.73C39 17.73 38.69 17.78 38.39 17.88C37.58 18.13 36.92 18.71 36.53 19.48L35.36 21.78C34.54 23.4 35.15 25.4 36.72 26.24L44.57 30.4C44.96 30.61 45.39 30.73 45.82 30.75Z" fill="#FF5C00"/>
<path d="M55.5 22.57C55.32 21.97 55.08 21.4 54.79 20.87C54.17 20.92 53.55 21.06 52.95 21.25C51.83 21.63 50.96 22.49 50.56 23.56C50.43 23.58 50.29 23.62 50.17 23.67C50.14 23.67 50.1 23.69 50.06 23.7C50.02 23.71 49.99 23.73 49.96 23.74C50.01 23.84 50.05 23.94 50.09 24.05C50.15 24.22 50.23 24.39 50.31 24.54C51.07 26.02 52.7 26.87 54.33 26.64C54.51 26.62 54.68 26.59 54.86 26.54C54.98 26.5 55.12 26.47 55.25 26.45C55.2 26.24 55.12 26.03 55.03 25.83C55.65 24.87 55.84 23.69 55.5 22.57Z" fill="#FF5C00"/>
<path d="M66.3 35.4L65.13 37.7C64.74 38.48 64.08 39.05 63.27 39.31C62.49 39.55 61.67 39.48 60.95 39.1L53.09 34.92C52.64 34.69 52.27 34.35 51.98 33.95L52 33.93C52.71 33.25 53.3 32.44 53.76 31.55L54.94 29.19C55.02 29.05 55.08 28.9 55.14 28.76C55.47 28.01 55.68 27.23 55.8 26.43C55.92 26.43 56.02 26.44 56.13 26.46C56.46 26.51 56.78 26.61 57.08 26.78L65 30.97C66.53 31.83 67.11 33.79 66.3 35.4Z" fill="#FF5C00"/>
<path d="M64.4701 24.35L59.71 21.83C58.45 21.16 57.06 20.82 55.67 20.82C55.46 20.82 55.2401 20.83 55.0201 20.85C54.9401 20.85 54.8701 20.86 54.7901 20.87C54.6601 20.63 54.5301 20.41 54.3801 20.19C54.1801 19.88 53.9401 19.58 53.7001 19.3L53.66 19.26C53.53 19.11 53.4 18.97 53.25 18.82C53.09 18.66 52.9101 18.5 52.7401 18.35C52.6301 18.26 52.5201 18.17 52.4001 18.09C52.3401 18.03 52.2701 17.99 52.2001 17.94C52.0701 17.84 51.94 17.75 51.8 17.66C51.61 17.54 51.4 17.42 51.19 17.3L46.3 14.72C47.2 13.85 48.23 13.34 49.09 13.05C51.85 12.08 55.1601 12.43 58.1301 14.02C61.1501 15.61 63.3501 18.2 64.1901 21.12C64.4401 21.99 64.6201 23.12 64.4701 24.35Z" fill="#FF5C00"/>
<path d="M26.92 79.54C26.91 79.53 26.9 79.52 26.89 79.5C26.74 79.41 26.59 79.32 26.43 79.25C26.33 79.2 26.22 79.15 26.12 79.1C26.09 79.08 26.08 79.08 26.07 79.07C26.07 79.07 26.07 79.07 26.05 79.06C25.84 78.97 25.63 78.89 25.42 78.8C25.19 78.7 24.97 78.6 24.75 78.5C24.72 78.48 24.55 78.42 24.64 78.45C24.61 78.44 24.58 78.43 24.57 78.42C23.89 78.14 23.12 77.85 22.59 77.3L22.85 78.89C22.87 79.01 22.87 79.13 22.87 79.31C22.89 79.85 22.76 80.4 22.51 80.89L21.35 83.19C21.1 83.69 20.75 84.09 20.31 84.4C20.16 84.49 20.04 84.6 19.91 84.72C19.55 85.03 19.26 85.41 19.04 85.81C18.56 86.71 18.43 87.77 18.74 88.79C18.92 89.4 19.16 89.96 19.45 90.5C20.08 90.44 20.69 90.3 21.3 90.1C22.31 89.77 23.11 89.04 23.56 88.11C23.85 88.05 24.12 87.96 24.39 87.83C24.44 87.94 24.5 88.02 24.57 88.12C25.12 87.61 25.58 87.02 25.98 86.38C25.98 86.37 25.99 86.37 25.99 86.36C26.12 86.16 26.23 85.95 26.35 85.73L27.51 83.42C27.62 83.21 27.71 82.99 27.8 82.78C27.88 82.61 27.95 82.43 28 82.25C28.18 81.75 28.31 81.23 28.37 80.71C28.38 80.68 28.39 80.64 28.39 80.6C28.4 80.51 28.41 80.42 28.42 80.33C27.78 80.38 27.25 80.08 26.92 79.54Z" fill="#FF5C00"/>
<path d="M38.87 89.6L37.7001 91.91C37.3101 92.68 36.65 93.25 35.85 93.5C35.08 93.76 34.27 93.68 33.55 93.32L25.66 89.12C25.48 89.03 25.32 88.92 25.16 88.79C25.09 88.74 25.0101 88.67 24.9401 88.6C24.8601 88.53 24.79 88.45 24.74 88.38C24.67 88.31 24.61 88.22 24.55 88.14C25.1 87.63 25.56 87.04 25.96 86.4C25.96 86.39 25.97 86.39 25.97 86.38C26.1 86.18 26.21 85.97 26.33 85.75L27.49 83.44C27.6 83.23 27.6901 83.01 27.7801 82.8C27.8601 82.63 27.93 82.45 27.98 82.27C28.16 81.77 28.2901 81.25 28.35 80.73C28.36 80.7 28.3701 80.66 28.3701 80.62C28.8101 80.65 29.25 80.77 29.66 80.98L37.5201 85.14C39.09 85.98 39.69 87.98 38.87 89.6Z" fill="#FF5C00"/>
<path d="M26.9202 79.54C26.9102 79.53 26.9002 79.52 26.8902 79.5C26.7402 79.41 26.5902 79.32 26.4302 79.25C26.3302 79.2 26.2202 79.15 26.1202 79.1C26.0902 79.08 26.0802 79.08 26.0702 79.07C26.0702 79.07 26.0702 79.07 26.0502 79.06C25.8402 78.97 25.6302 78.89 25.4202 78.8C25.1902 78.7 24.9702 78.6 24.7502 78.5C24.7202 78.48 24.5502 78.42 24.6402 78.45C24.6102 78.44 24.5802 78.43 24.5702 78.42C23.8502 78.12 23.0202 77.83 22.5002 77.21C22.4202 77.27 22.3402 77.34 22.2602 77.42C22.0902 77.58 21.9102 77.77 21.7502 77.95C21.7402 77.96 21.7302 77.97 21.7202 77.99C21.4202 78.32 21.1602 78.69 20.9102 79.07C20.8902 79.1 20.8702 79.13 20.8502 79.16C20.7302 79.38 20.6002 79.6 20.4802 79.82L19.3302 82.12C19.2202 82.34 19.1102 82.57 19.0102 82.79C18.9702 82.92 18.9202 83.03 18.8902 83.16C18.6702 83.73 18.5302 84.33 18.4402 84.93C18.5602 84.94 18.6602 84.94 18.7802 84.92C18.8302 85.22 18.9202 85.52 19.0402 85.81C18.5602 86.71 18.4302 87.77 18.7402 88.79C18.9202 89.4 19.1602 89.96 19.4502 90.5C20.0802 90.44 20.6902 90.3 21.3002 90.1C22.3102 89.77 23.1102 89.04 23.5602 88.11C23.7502 87.71 23.8802 87.28 23.9302 86.82C23.9602 86.63 23.9602 86.44 23.9602 86.24C23.9502 85.7 24.0702 85.14 24.3302 84.65L25.4802 82.35C25.7302 81.87 26.0902 81.45 26.5602 81.13C26.6602 81.06 26.7502 81 26.8502 80.95L28.1202 80.32C27.6102 80.28 27.2002 79.99 26.9202 79.54Z" fill="#FF5C00"/>
<path d="M22.2401 77.44C22.0701 77.6 21.8901 77.79 21.7301 77.97C21.7201 77.98 21.7101 77.99 21.7001 78.01C21.4001 78.34 21.1401 78.71 20.8901 79.09C20.8701 79.12 20.8501 79.15 20.8301 79.18C20.7101 79.4 20.5801 79.62 20.4601 79.84L19.3101 82.14C19.2001 82.36 19.0901 82.59 18.9901 82.81C18.9501 82.94 18.9001 83.05 18.8701 83.18C18.6501 83.75 18.5101 84.35 18.4201 84.95C18.3501 84.95 18.2801 84.95 18.2201 84.94H18.1801C18.0501 84.92 17.9301 84.9 17.8301 84.87C17.7001 84.84 17.5801 84.8 17.4801 84.77C17.3601 84.72 17.2401 84.67 17.1401 84.61L9.24008 80.42C7.70008 79.56 7.12008 77.6 7.92008 75.98L9.09008 73.68C9.48008 72.91 10.1401 72.33 10.9501 72.08C11.2501 71.98 11.5601 71.93 11.8601 71.93C12.3501 71.93 12.8401 72.06 13.2801 72.29L21.1401 76.46C21.5801 76.7 21.9601 77.03 22.2401 77.44Z" fill="#FF5C00"/>
<path d="M26.92 79.54C26.91 79.53 26.9 79.52 26.89 79.5C26.74 79.41 26.59 79.32 26.43 79.25C26.33 79.2 26.22 79.15 26.12 79.1C26.09 79.08 26.08 79.08 26.07 79.07C26.07 79.07 26.07 79.07 26.05 79.06C25.84 78.97 25.63 78.89 25.42 78.8C25.19 78.7 24.97 78.6 24.75 78.5C24.72 78.48 24.55 78.42 24.64 78.45C24.61 78.44 24.58 78.43 24.57 78.42C23.85 78.12 23.02 77.83 22.5 77.21C22.42 77.27 22.34 77.34 22.26 77.42C22.09 77.58 21.91 77.77 21.75 77.95C21.74 77.96 21.73 77.97 21.72 77.99C21.42 78.32 21.16 78.69 20.91 79.07C20.89 79.1 20.87 79.13 20.85 79.16C20.73 79.38 20.6 79.6 20.48 79.82L19.33 82.12C19.22 82.34 19.11 82.57 19.01 82.79C18.97 82.92 18.92 83.03 18.89 83.16C18.86 83.26 18.84 83.34 18.82 83.44C18.8 83.5 18.79 83.55 18.78 83.61C18.76 83.7 18.75 83.8 18.74 83.91C18.73 84.02 18.72 84.14 18.72 84.25C18.72 84.26 18.72 84.26 18.72 84.27V84.31C18.72 84.44 18.73 84.59 18.75 84.72L18.78 84.92C18.83 85.22 18.92 85.52 19.04 85.81C19.39 86.63 20.04 87.34 20.9 87.79C21.49 88.08 22.09 88.22 22.69 88.22C22.98 88.22 23.28 88.19 23.56 88.11C23.85 88.05 24.12 87.96 24.39 87.83C25.02 87.52 25.58 87.03 25.98 86.38C25.98 86.37 25.99 86.37 25.99 86.36C26.12 86.16 26.23 85.95 26.35 85.73L27.51 83.42C27.62 83.21 27.71 82.99 27.8 82.78C27.88 82.61 27.95 82.43 28 82.25C28.18 81.75 28.31 81.23 28.37 80.71C28.38 80.68 28.39 80.64 28.39 80.6C28.4 80.51 28.41 80.42 28.42 80.33C27.78 80.38 27.25 80.08 26.92 79.54Z" fill="#FF5C00"/>
<path d="M24.1302 87.33C24.0702 87.16 24.0002 86.99 23.9102 86.84C23.1502 85.35 21.5202 84.51 19.8902 84.74C19.7102 84.76 19.5502 84.79 19.3702 84.84C19.1702 84.9 18.9702 84.94 18.7602 84.94C18.8102 85.24 18.9002 85.54 19.0202 85.83C18.5402 86.73 18.4102 87.79 18.7202 88.81C18.9002 89.42 19.1402 89.98 19.4302 90.52C20.0602 90.46 20.6702 90.32 21.2802 90.12C22.2902 89.79 23.0902 89.06 23.5402 88.13C23.8302 88.07 24.1002 87.98 24.3702 87.85C24.2802 87.68 24.2002 87.52 24.1302 87.33ZM18.2202 84.94C18.2802 84.95 18.3502 84.96 18.4202 84.96V84.95C18.3502 84.95 18.2802 84.95 18.2202 84.94Z" fill="#FF5C00"/>
<path d="M27.5701 96.48C24.7901 98.49 20.3901 98.65 16.4801 96.58C12.5601 94.49 10.1301 90.73 10.1001 87.22L14.5101 89.55C15.7601 90.22 17.1501 90.56 18.5401 90.56C18.7501 90.56 18.9801 90.55 19.1901 90.53C19.2701 90.53 19.3501 90.53 19.4301 90.52C19.5301 90.69 19.6301 90.87 19.7401 91.03C19.8601 91.23 19.9901 91.42 20.1301 91.6C20.2301 91.73 20.3401 91.87 20.4501 91.99C20.5801 92.16 20.7301 92.32 20.8801 92.46C21.0701 92.67 21.2801 92.86 21.5101 93.05C21.5801 93.11 21.6601 93.18 21.7501 93.25C21.8601 93.34 21.9801 93.42 22.1001 93.5C22.2001 93.58 22.3001 93.65 22.4101 93.71C22.6101 93.84 22.8201 93.96 23.0301 94.08L27.5701 96.48Z" fill="#FF5C00"/>
<path d="M18 95.64C17.54 95.64 17.08 95.53 16.64 95.31C15.16 94.56 14.58 92.75 15.33 91.28L53.13 17.07C53.88 15.59 55.69 15 57.17 15.76C58.65 16.51 59.23 18.32 58.48 19.79L20.67 94C20.14 95.04 19.09 95.64 18 95.64Z" fill="#FF5C00"/>
</g>
<defs>
<clipPath id="clip0_1_1705">
<rect width="113.73" height="138.41" fill="white"/>
</clipPath>
</defs>
</svg>
