<svg width="320" height="90" viewBox="0 0 320 90" fill="none" xmlns="http://www.w3.org/2000/svg">
<g clip-path="url(#clip0_2008_5)">
<path d="M53.2396 39.6276C49.7915 26.5248 43.0647 20.1921 37.9917 17.1804C37.982 17.1755 37.9675 17.1657 37.9578 17.1608C38.3931 18.4037 38.7896 19.7843 39.0846 21.2925C39.0894 21.3073 39.0894 21.322 39.0943 21.3368C39.1088 21.3466 39.1233 21.3564 39.1378 21.3712C45.7196 26.4954 48.9646 34.3511 50.546 40.3597C52.8431 49.0703 52.4997 56.3513 51.1311 62.0798C50.1397 66.2754 48.5971 69.6408 47.1462 72.1316C46.4305 73.3501 45.7438 74.3572 45.149 75.1531C45.0474 75.2907 44.9459 75.4233 44.8491 75.5511C44.3994 76.1308 43.6546 76.3322 42.9921 76.0423C42.818 75.9687 42.6342 75.8851 42.436 75.7918C41.5461 75.384 40.4242 74.8239 39.1572 74.0821C37.2179 72.9521 34.9305 71.3947 32.6092 69.3214C32.6044 69.3214 32.6044 69.3165 32.6044 69.3165C29.8382 66.8551 27.0284 63.6667 24.6878 59.5889C24.6733 59.5594 24.6539 59.5349 24.6394 59.5054L24.6346 59.5103C23.914 60.1736 23.1935 60.7828 22.4729 61.3527C22.4874 61.3821 22.5019 61.4067 22.5213 61.4362C28.8178 72.0923 38.1077 77.0004 41.8992 78.6462C42.4505 78.8869 43.026 78.9999 43.5966 78.9999C44.9072 78.9999 46.1936 78.3956 47.0399 77.3001C50.6572 72.6229 58.4964 59.5938 53.2396 39.6276Z" fill="#FF5C00"/>
<path d="M31.908 11.6731C31.6275 11.3095 31.2213 11.0835 30.786 11.054C30.2444 11.0197 29.7076 11 29.1805 11C15.393 11 7.49095 23.3266 3.94615 30.8728C0.76405 37.6478 -0.149957 44.1034 0.0193036 49.6452C0.0289757 50.053 0.0483197 50.4558 0.0724998 50.8489C0.449709 57.3094 2.23903 62.4041 3.41902 65.1357C3.72369 65.8284 4.40073 66.2264 5.10679 66.1232C10.3974 65.342 23.6481 61.6721 32.3481 44.5062C34.6645 39.9372 41.4785 24.0537 31.908 11.6731ZM34.4808 29.6397L33.9149 30.7697C33.5571 31.487 33.0203 32.0765 32.3722 32.4941C33.8956 33.9827 34.355 36.395 33.3491 38.4093C32.8558 39.4066 32.0724 40.1829 31.1052 40.6496C31.85 42.0547 31.9273 43.8037 31.1681 45.3267C30.5684 46.5304 29.5528 47.4098 28.3052 47.8127C27.9134 47.9404 27.5121 48.0141 27.1058 48.0337C27.4202 49.203 27.3283 50.4951 26.748 51.6546C26.1531 52.8533 25.1376 53.7377 23.8899 54.1405C23.4159 54.2928 22.9275 54.3714 22.4439 54.3714C22.1924 54.3714 21.9313 54.3518 21.6847 54.3027C21.6798 54.9659 21.5251 55.6439 21.2156 56.2629L20.6497 57.3978C20.1275 58.4443 19.2473 59.2107 18.1544 59.5644C17.7385 59.702 17.3129 59.7609 16.8873 59.7609C16.5778 59.7609 16.2683 59.7265 15.9636 59.6528C14.7305 61.1464 12.8396 61.9472 10.7939 61.9472C9.44953 61.9472 8.04225 61.6033 6.70268 60.8811C3.33197 59.0682 1.58134 55.4818 2.3551 52.3277C1.64904 51.6791 1.18478 50.7997 1.02036 49.8614C0.947818 49.4781 0.928475 49.0851 0.967163 48.6921C1.01069 48.1467 1.1606 47.6014 1.41208 47.0855L1.97789 45.9556C2.29223 45.3316 2.73714 44.801 3.27878 44.4031C1.83765 42.9095 1.42175 40.5661 2.40346 38.596C2.96927 37.4611 3.90746 36.6062 5.06327 36.1837C4.15893 34.7295 4.00902 32.8331 4.8263 31.1922C5.42113 29.9885 6.4367 29.1091 7.68439 28.7062C7.96971 28.6178 8.25987 28.549 8.55003 28.5146C8.36143 27.4731 8.49684 26.3628 9.00462 25.3458C9.59945 24.147 10.615 23.2627 11.8627 22.8598C12.6413 22.6142 13.4441 22.57 14.2178 22.7272C14.1743 21.9608 14.3146 21.1845 14.6773 20.4574L15.2431 19.3274C15.7654 18.2761 16.6504 17.5096 17.7385 17.1608C18.43 16.9348 19.1457 16.8955 19.8325 17.0429C20.5627 16.0309 21.5976 15.2546 22.8453 14.8124C24.8909 14.0804 27.2751 14.3211 29.3836 15.4511C31.4873 16.5909 33.0396 18.4677 33.649 20.6195C34.0165 21.9313 33.9971 23.248 33.6103 24.4516C34.9498 25.7536 35.3609 27.8661 34.4808 29.6348V29.6397Z" fill="#FF5C00"/>
<path d="M32.5513 69.238C29.7851 66.7766 26.9754 63.5881 24.6348 59.5104C25.3795 58.8324 26.1194 58.1004 26.8545 57.3192C28.6583 62.1192 30.7427 66.1674 32.5513 69.238Z" fill="#FF5C00"/>
<path d="M42.3829 75.7132C41.4931 75.3054 40.3712 74.7454 39.1041 74.0035C39.1041 73.9986 39.0993 73.9937 39.0944 73.9888C39.0364 73.9102 32.9866 66.3492 28.9485 54.9266C30.9071 52.5241 32.7883 49.709 34.5051 46.4174L42.3829 75.7132Z" fill="#FF5C00"/>
<path d="M51.078 62.0012C51.2715 47.6112 45.3377 35.4763 39.665 27.2078C39.6602 25.0608 39.4426 23.0858 39.0847 21.2926C45.6665 26.4168 48.9115 34.2726 50.4929 40.2811C52.79 48.9918 52.4466 56.2727 51.078 62.0012Z" fill="#FF5C00"/>
<path d="M47.093 72.0531C46.3773 73.2715 45.6906 74.2786 45.0958 75.0745L36.3474 42.5312C37.9771 38.6795 38.9153 35.1176 39.3554 31.8652C45.3714 41.6518 50.7781 55.7814 47.093 72.0531Z" fill="#FF5C00"/>
<path d="M26.7622 24.2846C26.7622 24.2649 26.7622 24.2502 26.7574 24.2305C26.7622 24.2207 26.7574 24.2109 26.7526 24.1961C26.7429 24.1274 26.7332 24.0635 26.7187 23.9947C26.6945 23.8915 26.6558 23.7884 26.6123 23.6901C26.4382 23.2971 26.1335 22.9581 25.7128 22.7419C25.3066 22.5306 24.8568 22.4815 24.4506 22.5749C24.3877 22.5847 24.32 22.6043 24.262 22.6289C24.2475 22.6289 24.2282 22.6387 24.2088 22.6436C24.1895 22.6486 24.175 22.6584 24.1605 22.6633C24.1508 22.6633 24.1411 22.6633 24.1363 22.6682C24.1266 22.6731 24.1169 22.6731 24.1121 22.678C24.0105 22.7223 23.9187 22.7763 23.8268 22.8402C23.73 22.904 23.6333 22.9826 23.5463 23.0662C23.5028 23.1055 23.4641 23.1448 23.4254 23.1939C23.3867 23.2381 23.3528 23.2872 23.3142 23.3364C23.3142 23.3413 23.3093 23.3462 23.3045 23.3511C23.3045 23.3511 23.3045 23.3511 23.3045 23.356C23.2561 23.4199 23.2174 23.4936 23.1739 23.5673L22.5984 24.7267C22.5452 24.8348 22.4969 24.9478 22.4485 25.0608C22.4147 25.1443 22.3808 25.2279 22.3615 25.3114C22.3518 25.3261 22.3469 25.3408 22.3469 25.3605C22.3276 25.3998 22.3179 25.4391 22.3083 25.4833C22.2792 25.5668 22.2551 25.6602 22.2357 25.7535C22.2309 25.7535 22.2309 25.7584 22.2309 25.7634C22.226 25.783 22.226 25.8027 22.2212 25.8223C22.2164 25.8371 22.2164 25.8518 22.2115 25.8714C22.197 25.9304 22.1874 25.9894 22.1825 26.0483C22.1777 26.068 22.1729 26.0876 22.1729 26.1073C22.1825 26.1073 22.197 26.1073 22.2067 26.1024C22.3034 26.0974 22.4001 26.0925 22.5017 26.0827C22.7145 26.0631 22.9224 26.0385 23.1352 26.0188C23.2948 26.0041 23.4496 26.0925 23.5608 26.1957C23.6769 26.3038 23.73 26.4708 23.7349 26.628C23.7349 26.6575 23.73 26.687 23.7252 26.7116C23.7978 26.6379 23.8848 26.574 23.9815 26.5396C24.1266 26.4905 24.3152 26.5249 24.4458 26.6035C24.5812 26.6821 24.6779 26.8196 24.7214 26.967C24.7263 26.9867 24.7359 27.0014 24.7408 27.0211C24.7698 27.0849 24.7988 27.1488 24.8327 27.2127C24.8713 27.2815 24.9052 27.3552 24.9487 27.419C24.9971 27.4927 25.0551 27.5566 25.0986 27.6303C25.1083 27.645 25.1131 27.6598 25.1228 27.6745C25.1277 27.6696 25.1277 27.6696 25.1325 27.6647L25.147 27.6696C25.4904 27.3355 25.7757 26.9376 25.9981 26.5003L26.5688 25.3408C26.6075 25.2721 26.6365 25.1984 26.6655 25.1296C26.709 24.9969 26.7381 24.8692 26.7526 24.7366C26.7622 24.6923 26.7671 24.6432 26.7671 24.6039C26.7767 24.4958 26.7719 24.3927 26.7622 24.2846Z" fill="#FF5C00"/>
<path d="M26.7622 24.2846C26.7622 24.2649 26.7622 24.2502 26.7574 24.2305C26.7622 24.2207 26.7574 24.2109 26.7526 24.1961C26.7429 24.1274 26.7332 24.0635 26.7187 23.9947C26.6945 23.8915 26.6558 23.7884 26.6123 23.6901C26.4382 23.2971 26.1335 22.9581 25.7128 22.7419C25.3066 22.5306 24.8568 22.4815 24.4506 22.5749C24.3877 22.5847 24.32 22.6043 24.262 22.6289C24.2475 22.6289 24.2282 22.6387 24.2088 22.6436C24.1895 22.6486 24.175 22.6584 24.1605 22.6633C24.1508 22.6633 24.1411 22.6633 24.1363 22.6682C24.1266 22.6731 24.1169 22.6731 24.1121 22.678C24.0105 22.7223 23.9187 22.7763 23.8268 22.8402C23.73 22.904 23.6333 22.9826 23.5463 23.0662C23.5028 23.1055 23.4641 23.1448 23.4254 23.1939C23.3867 23.2381 23.3528 23.2872 23.3142 23.3364C23.3142 23.3413 23.3093 23.3462 23.3045 23.3511C23.3045 23.3511 23.3045 23.3511 23.3045 23.356C23.2561 23.4199 23.2174 23.4936 23.1739 23.5673L22.5984 24.7267C22.5452 24.8348 22.4969 24.9478 22.4485 25.0608C22.4147 25.1443 22.3808 25.2279 22.3615 25.3114C22.3518 25.3261 22.3469 25.3408 22.3469 25.3605C22.3276 25.3998 22.3179 25.4391 22.3083 25.4833C22.2792 25.5668 22.2551 25.6602 22.2357 25.7535C22.2309 25.7535 22.2309 25.7584 22.2309 25.7634C22.226 25.783 22.226 25.8027 22.2212 25.8223C22.2164 25.8371 22.2164 25.8518 22.2115 25.8714C22.197 25.9304 22.1874 25.9894 22.1825 26.0483C22.1777 26.068 22.1729 26.0876 22.1729 26.1073C22.1825 26.1073 22.197 26.1073 22.2067 26.1024C22.3034 26.0974 22.4001 26.0925 22.5017 26.0827C22.7145 26.0631 22.9224 26.0385 23.1352 26.0188C23.2948 26.0041 23.4496 26.0925 23.5608 26.1957C23.6769 26.3038 23.73 26.4708 23.7349 26.628C23.7349 26.6575 23.73 26.687 23.7252 26.7116C23.7978 26.6379 23.8848 26.574 23.9815 26.5396C24.1266 26.4905 24.3152 26.5249 24.4458 26.6035C24.5812 26.6821 24.6779 26.8196 24.7214 26.967C24.7263 26.9867 24.7359 27.0014 24.7408 27.0211C24.7698 27.0849 24.7988 27.1488 24.8327 27.2127C24.8713 27.2815 24.9052 27.3552 24.9487 27.419C24.9971 27.4927 25.0551 27.5566 25.0986 27.6303C25.1083 27.645 25.1131 27.6598 25.1228 27.6745C25.1277 27.6696 25.1277 27.6696 25.1325 27.6647L25.147 27.6696C25.4904 27.3355 25.7757 26.9376 25.9981 26.5003L26.5688 25.3408C26.6075 25.2721 26.6365 25.1984 26.6655 25.1296C26.709 24.9969 26.7381 24.8692 26.7526 24.7366C26.7622 24.6923 26.7671 24.6432 26.7671 24.6039C26.7767 24.4958 26.7719 24.3927 26.7622 24.2846Z" fill="#FF5C00"/>
<path d="M13.0183 50.0775C13.0134 50.0725 13.0086 50.0676 13.0038 50.0578C12.9312 50.0136 12.8587 49.9694 12.7813 49.935C12.7329 49.9104 12.6797 49.8858 12.6314 49.8613C12.6169 49.8515 12.612 49.8515 12.6072 49.8465C12.6072 49.8465 12.6072 49.8465 12.5975 49.8416C12.496 49.7974 12.3944 49.7581 12.2929 49.7139C12.1816 49.6648 12.0752 49.6156 11.9689 49.5665C11.9543 49.5567 11.8721 49.5272 11.9157 49.5419C11.9011 49.537 11.8866 49.5321 11.8818 49.5272C11.5336 49.3798 11.1322 49.2373 10.8807 48.9327C10.8421 48.9622 10.8034 48.9966 10.7647 49.0359C10.6825 49.1145 10.5954 49.2079 10.518 49.2963C10.5132 49.3012 10.5084 49.3061 10.5035 49.3159C10.3585 49.4781 10.2327 49.6599 10.1118 49.8465C10.1021 49.8613 10.0925 49.876 10.0828 49.8908C10.0248 49.9988 9.96191 50.1069 9.90387 50.215L9.34773 51.345C9.29454 51.4531 9.24134 51.5661 9.19298 51.6742C9.17364 51.738 9.14945 51.7921 9.13495 51.8559C9.12044 51.9051 9.11077 51.9444 9.10109 51.9935C9.09142 52.023 9.08659 52.0475 9.08175 52.077C9.07208 52.1212 9.06724 52.1704 9.06241 52.2244C9.05757 52.2785 9.05273 52.3374 9.05273 52.3914C9.05273 52.3964 9.05273 52.3964 9.05273 52.4013V52.4209C9.05273 52.4848 9.05757 52.5585 9.06724 52.6224L9.08175 52.7206C9.10593 52.868 9.14946 53.0154 9.20749 53.1579C9.37675 53.5607 9.69109 53.9095 10.107 54.1306C10.3923 54.2731 10.6825 54.3419 10.9726 54.3419C11.1129 54.3419 11.258 54.3271 11.3934 54.2878C11.5336 54.2584 11.6642 54.2142 11.7948 54.1503C12.0994 53.998 12.3702 53.7572 12.5637 53.4379C12.5637 53.433 12.5685 53.433 12.5685 53.4281C12.6314 53.3298 12.6846 53.2267 12.7426 53.1186L13.3036 51.9837C13.3568 51.8805 13.4003 51.7724 13.4438 51.6692C13.4825 51.5857 13.5164 51.4973 13.5406 51.4089C13.6276 51.1632 13.6905 50.9077 13.7195 50.6523C13.7243 50.6375 13.7292 50.6179 13.7292 50.5982C13.734 50.554 13.7388 50.5098 13.7437 50.4656C13.4342 50.4901 13.1779 50.3428 13.0183 50.0775Z" fill="#FF5C00"/>
<path d="M13.0183 50.0775C13.0134 50.0725 13.0086 50.0676 13.0038 50.0578C12.9312 50.0136 12.8587 49.9694 12.7813 49.935C12.7329 49.9104 12.6797 49.8858 12.6314 49.8613C12.6169 49.8515 12.612 49.8515 12.6072 49.8465C12.6072 49.8465 12.6072 49.8465 12.5975 49.8416C12.496 49.7974 12.3944 49.7581 12.2929 49.7139C12.1816 49.6648 12.0752 49.6156 11.9689 49.5665C11.9543 49.5567 11.8721 49.5272 11.9157 49.5419C11.9011 49.537 11.8866 49.5321 11.8818 49.5272C11.5336 49.3798 11.1322 49.2373 10.8807 48.9327C10.8421 48.9622 10.8034 48.9966 10.7647 49.0359C10.6825 49.1145 10.5954 49.2079 10.518 49.2963C10.5132 49.3012 10.5084 49.3061 10.5035 49.3159C10.3585 49.4781 10.2327 49.6599 10.1118 49.8465C10.1021 49.8613 10.0925 49.876 10.0828 49.8908C10.0248 49.9988 9.96191 50.1069 9.90387 50.215L9.34773 51.345C9.29454 51.4531 9.24134 51.5661 9.19298 51.6742C9.17364 51.738 9.14945 51.7921 9.13495 51.8559C9.12044 51.9051 9.11077 51.9444 9.10109 51.9935C9.09142 52.023 9.08659 52.0475 9.08175 52.077C9.07208 52.1212 9.06724 52.1704 9.06241 52.2244C9.05757 52.2785 9.05273 52.3374 9.05273 52.3914C9.05273 52.3964 9.05273 52.3964 9.05273 52.4013V52.4209C9.05273 52.4848 9.05757 52.5585 9.06724 52.6224L9.08175 52.7206C9.10593 52.868 9.14946 53.0154 9.20749 53.1579C9.37675 53.5607 9.69109 53.9095 10.107 54.1306C10.3923 54.2731 10.6825 54.3419 10.9726 54.3419C11.1129 54.3419 11.258 54.3271 11.3934 54.2878C11.5336 54.2584 11.6642 54.2142 11.7948 54.1503C12.0994 53.998 12.3702 53.7572 12.5637 53.4379C12.5637 53.433 12.5685 53.433 12.5685 53.4281C12.6314 53.3298 12.6846 53.2267 12.7426 53.1186L13.3036 51.9837C13.3568 51.8805 13.4003 51.7724 13.4438 51.6692C13.4825 51.5857 13.5164 51.4973 13.5406 51.4089C13.6276 51.1632 13.6905 50.9077 13.7195 50.6523C13.7243 50.6375 13.7292 50.6179 13.7292 50.5982C13.734 50.554 13.7388 50.5098 13.7437 50.4656C13.4342 50.4901 13.1779 50.3428 13.0183 50.0775Z" fill="#FF5C00"/>
<path d="M16.892 43.0029C16.8291 42.6099 16.7227 42.2267 16.5776 41.8631C16.5244 41.7354 16.4712 41.6126 16.4083 41.4947C16.2004 41.082 15.9393 40.6939 15.6201 40.3549C15.6878 40.7774 15.8038 41.1851 15.9683 41.5684C15.8425 41.5978 15.7168 41.6322 15.5911 41.6764C15.3734 41.7452 15.1655 41.8287 14.9624 41.927C14.5852 42.1088 14.237 42.3397 13.9226 42.605C14.3144 43.2633 14.3772 44.1133 14.0097 44.8502C13.7389 45.3857 13.294 45.7738 12.7426 45.9507C12.5734 46.0047 12.3945 46.0391 12.2155 46.044C12.201 46.162 12.2059 46.2799 12.2059 46.3978C12.4863 46.3192 12.8007 46.4371 12.9603 46.7171C12.999 46.781 13.0183 46.8498 13.0328 46.9235C13.0618 46.9284 13.086 46.9284 13.115 46.9333C13.323 46.9628 13.5212 47.0463 13.6712 47.1986C13.6857 47.2133 13.6953 47.233 13.7099 47.2526C13.7582 47.0758 13.8791 46.9284 14.0532 46.8547C14.2902 46.7515 14.5223 46.8154 14.7109 46.9824C14.8366 47.0905 14.9237 47.2379 14.9866 47.3902C14.9914 47.4 14.9914 47.4 14.9914 47.4049C15.0301 47.4491 15.0639 47.4983 15.0978 47.5425C15.1026 47.5523 15.1075 47.5621 15.1171 47.572C15.1268 47.5867 15.1365 47.6064 15.1461 47.626C15.1558 47.6358 15.1655 47.6457 15.1752 47.6555C15.18 47.6604 15.1848 47.6653 15.1897 47.6751C15.2042 47.6653 15.2187 47.6555 15.2284 47.6457C15.7168 47.2182 16.123 46.6926 16.4229 46.0932C16.7227 45.4889 16.892 44.8453 16.9355 44.2017C16.979 43.8037 16.9597 43.396 16.892 43.0029Z" fill="#FF5C00"/>
<path d="M13.9227 42.605C13.4343 43.0324 13.028 43.5581 12.7282 44.1624C12.4284 44.7617 12.2591 45.4053 12.2156 46.044C11.8529 46.0637 11.4854 45.9801 11.1565 45.8033L5.73533 42.885C4.67624 42.3151 4.27002 40.9493 4.82132 39.839C5.0873 39.3035 5.53705 38.9104 6.08352 38.7336C6.61065 38.5616 7.17646 38.6156 7.66974 38.8859L13.0909 41.8041C13.4439 41.9958 13.7244 42.2758 13.9227 42.605Z" fill="#FF5C00"/>
<path d="M17.6705 41.4897C17.2547 41.4307 16.8291 41.4307 16.4083 41.4946C16.2633 41.5093 16.1182 41.5388 15.9683 41.5683C15.8425 41.5978 15.7168 41.6321 15.5911 41.6764C15.3734 41.7451 15.1655 41.8287 14.9624 41.9269C14.5852 42.1087 14.237 42.3396 13.9226 42.6049C13.4342 43.0323 13.028 43.558 12.7281 44.1623C12.4283 44.7617 12.259 45.4053 12.2155 46.044C12.201 46.1619 12.2059 46.2798 12.2059 46.3977C12.4863 46.3191 12.8007 46.437 12.9603 46.717C12.999 46.7809 13.0183 46.8497 13.0328 46.9234C13.0618 46.9283 13.086 46.9283 13.115 46.9332C13.323 46.9627 13.5212 47.0462 13.6712 47.1985C13.6857 47.2132 13.6953 47.2329 13.7099 47.2525C13.7582 47.0757 13.8791 46.9283 14.0532 46.8546C14.2902 46.7514 14.5223 46.8153 14.7109 46.9823C14.8366 47.0904 14.9237 47.2378 14.9866 47.3901C14.9914 47.3999 14.9914 47.3999 14.9914 47.4048C15.0301 47.4491 15.0639 47.4982 15.0978 47.5424C15.1026 47.5522 15.1075 47.5621 15.1171 47.5719C15.1268 47.5866 15.1365 47.6063 15.1461 47.6259C15.1558 47.6358 15.1655 47.6456 15.1752 47.6554C15.18 47.6603 15.1848 47.6652 15.1897 47.6751C15.2042 47.6652 15.2187 47.6554 15.2284 47.6456C14.8366 46.9922 14.7738 46.1373 15.1413 45.4053C15.4121 44.8698 15.857 44.4767 16.4083 44.2999C16.5776 44.2409 16.7565 44.2065 16.9355 44.2016C16.9742 43.8037 16.9548 43.3959 16.8871 43.0029C16.8242 42.6098 16.7179 42.2266 16.5728 41.863C16.7275 41.8336 16.8823 41.7894 17.037 41.7402C17.2595 41.6714 17.4674 41.5879 17.6705 41.4897Z" fill="#FF5C00"/>
<path d="M24.3297 50.4115C24.0686 50.947 23.614 51.3401 23.0723 51.5169C22.5404 51.6889 21.9746 51.6348 21.4813 51.3695L16.0649 48.4463C15.7119 48.2547 15.4314 47.9747 15.2332 47.6455C15.7216 47.2181 16.1278 46.6924 16.4277 46.0931C16.7275 45.4888 16.8967 44.8452 16.9403 44.2016C17.303 44.1868 17.6657 44.2654 17.9994 44.4472L23.4205 47.3655C24.4699 47.9354 24.8858 49.3012 24.3297 50.4115Z" fill="#FF5C00"/>
<path d="M10.4648 31.6786C10.6534 31.826 10.8566 31.9537 11.0693 32.0667L16.4808 34.9899C16.6163 35.0587 16.7517 35.1275 16.8871 35.1815C16.7904 35.1029 16.6791 35.0292 16.5679 34.9703L10.4648 31.6786Z" fill="#FF5C00"/>
<path d="M23.382 30.9417C23.2949 30.9613 23.2272 30.9613 23.145 30.9662C23.1305 30.9662 23.1111 30.9662 23.0966 30.9662C22.9806 31.0006 22.6565 31.1333 22.6179 31.148C22.4341 31.207 22.2358 31.2708 22.0424 31.2708C21.7329 31.2758 21.4669 31.1087 21.2976 30.8483C21.2009 30.7009 21.1477 30.5241 21.0945 30.357C21.0655 30.3177 21.0607 30.303 21.0655 30.303C21.0607 30.2981 21.0607 30.2932 21.0558 30.2883C21.0558 30.2833 21.051 30.2833 21.051 30.2784C21.022 30.2391 20.993 30.1998 20.9639 30.1654C20.9059 30.0868 20.8527 30.0131 20.814 29.9247C20.7947 29.8805 20.7753 29.8363 20.7608 29.792C20.7463 29.7675 20.7367 29.7429 20.7221 29.7184C20.6544 29.5955 20.5916 29.4727 20.5335 29.345C20.5287 29.3499 20.5239 29.3499 20.519 29.3548C20.9107 30.0082 20.9688 30.8532 20.6012 31.5902C20.3304 32.1257 19.8855 32.5187 19.339 32.6956C19.1601 32.7496 18.986 32.784 18.8071 32.7889C18.5798 32.8037 18.3573 32.7742 18.1349 32.7054C18.3718 32.8528 18.5846 33.0198 18.7877 33.2115C18.7926 33.7322 18.8748 34.253 19.0295 34.7443C19.0005 34.7492 18.9763 34.759 18.9473 34.7689C18.4734 34.9212 18.0382 35.1422 17.6416 35.4174C17.9946 35.5058 18.3525 35.5451 18.7152 35.5451C18.9183 35.5451 19.1311 35.5304 19.339 35.5058C19.6147 35.4665 19.8903 35.4026 20.1563 35.3191H20.1612C20.6303 35.1668 21.0703 34.9457 21.4621 34.6657C21.5878 34.5773 21.7039 34.4839 21.8248 34.3807C22.3132 33.9582 22.7194 33.4374 23.0192 32.8332C23.3191 32.2289 23.4883 31.5902 23.5319 30.9466C23.5319 30.9269 23.5319 30.9073 23.5319 30.8876C23.4883 30.9122 23.4351 30.9319 23.382 30.9417Z" fill="#FF5C00"/>
<path d="M20.5237 29.3646C20.0353 29.7822 19.6291 30.3079 19.3292 30.9122C19.0294 31.5164 18.8601 32.16 18.8118 32.7987C18.5845 32.8135 18.362 32.784 18.1396 32.7152C18.0428 32.6513 17.9413 32.5924 17.8397 32.5383L11.9446 29.3597C11.1854 28.6964 10.9387 27.5468 11.4223 26.5888C11.6835 26.0533 12.1381 25.6602 12.6797 25.4834C12.8876 25.4195 13.0956 25.39 13.3084 25.39C13.6372 25.39 13.9661 25.4735 14.2707 25.6357L19.6871 28.5539C20.0449 28.7456 20.3254 29.0256 20.5237 29.3646Z" fill="#FF5C00"/>
<path d="M23.3819 30.9416C23.2948 30.9612 23.2271 30.9612 23.1449 30.9661C23.1304 30.9661 23.111 30.9661 23.0965 30.9661C22.9805 31.0005 22.6565 31.1332 22.6178 31.1479C22.434 31.2069 22.2357 31.2707 22.0423 31.2707C21.7328 31.2756 21.4668 31.1086 21.2975 30.8482C21.2008 30.7008 21.1476 30.524 21.0944 30.3569C21.0654 30.3176 21.0606 30.3029 21.0654 30.3029C21.0606 30.298 21.0606 30.293 21.0557 30.2881C21.0557 30.2832 21.0509 30.2832 21.0509 30.2783C21.0219 30.239 20.9929 30.1997 20.9638 30.1653C20.9058 30.0867 20.8526 30.013 20.8139 29.9246C20.7946 29.8804 20.7752 29.8361 20.7607 29.7919C20.7462 29.7674 20.7366 29.7428 20.722 29.7182C20.6543 29.5954 20.5915 29.4726 20.5334 29.3448C20.5286 29.3498 20.5238 29.3498 20.5189 29.3547C20.0305 29.7723 19.6243 30.298 19.3244 30.9022C19.0246 31.5065 18.8602 32.16 18.8118 32.7986C18.7973 32.9362 18.7925 33.0787 18.7925 33.2212C18.7973 33.7419 18.8795 34.2627 19.0343 34.754C19.1165 35.0144 19.2229 35.2699 19.3438 35.5155C19.6098 36.0559 19.9773 36.5472 20.4367 36.955C20.4319 36.3998 20.34 35.8496 20.1659 35.3288C20.635 35.1765 21.0751 34.9554 21.4668 34.6754C21.7473 34.7393 22.0278 34.8326 22.2938 34.9505C22.1051 34.7933 21.9504 34.6017 21.8295 34.3904C21.4378 33.737 21.3797 32.892 21.7473 32.1551C22.0133 31.6245 22.463 31.2314 23.0095 31.0546C23.1787 30.9956 23.3577 30.9612 23.5366 30.9563C23.5366 30.9366 23.5366 30.917 23.5366 30.8973C23.4882 30.9121 23.4351 30.9317 23.3819 30.9416Z" fill="#FF5C00"/>
<path d="M21.3604 37.5495C21.2491 37.4856 21.1331 37.4414 21.0073 37.4021C21.1331 37.4856 21.2588 37.5642 21.3894 37.6379L26.8105 40.5562C27.0378 40.6741 27.2651 40.7822 27.5021 40.8559L21.3604 37.5495Z" fill="#FF5C00"/>
<path d="M30.931 37.1663C30.665 37.7018 30.2152 38.0948 29.6736 38.2717C29.3061 38.3896 28.9192 38.3994 28.5565 38.311L28.5468 38.3061L22.6324 35.1176C22.5211 35.0537 22.4051 35.0046 22.2938 34.9505C22.1052 34.7933 21.9505 34.6017 21.8296 34.3905C22.318 33.968 22.7243 33.4472 23.0241 32.8429C23.3239 32.2386 23.4932 31.5999 23.5367 30.9563C23.5706 30.9514 23.5996 30.9514 23.6286 30.9514C23.9623 30.9514 24.2911 31.0349 24.6006 31.202L30.017 34.1203C31.0712 34.6902 31.4823 36.0609 30.931 37.1663Z" fill="#FF5C00"/>
<path d="M17.8399 32.5383L11.9448 29.3596C12.0609 29.4628 12.1915 29.5561 12.3365 29.6347L17.7529 32.553C17.8738 32.6218 18.0092 32.6759 18.1398 32.7152C18.043 32.6513 17.9415 32.5923 17.8399 32.5383ZM20.166 35.3288C20.079 35.0734 19.9726 34.8277 19.8469 34.587C19.5857 34.076 19.2279 33.6044 18.7926 33.2212C18.7975 33.742 18.8797 34.2627 19.0344 34.754C19.0054 34.7589 18.9812 34.7688 18.9522 34.7786C18.4783 34.9309 18.043 35.152 17.6465 35.4271C17.3853 35.3681 17.1387 35.2895 16.8872 35.1815C17.0613 35.3239 17.2112 35.4861 17.3418 35.6727C17.7867 36.336 17.8689 37.24 17.4869 38.0113C17.2161 38.5468 16.7712 38.9399 16.2247 39.1167C16.0071 39.1904 15.7895 39.2199 15.5718 39.2199C15.5428 39.5982 15.5622 39.9765 15.6202 40.3548C15.6879 40.7773 15.804 41.1851 15.9684 41.5683C15.8427 41.5978 15.7169 41.6321 15.5912 41.6764C15.3736 41.7451 15.1656 41.8287 14.9625 41.9269C15.1704 41.9564 15.3832 41.9711 15.596 41.9711C15.7798 41.9711 15.9587 41.9613 16.1425 41.9318C16.2924 41.922 16.4326 41.8974 16.5777 41.8631C16.7325 41.8336 16.8872 41.7894 17.042 41.7402C17.2596 41.6714 17.4676 41.5879 17.6707 41.4897C18.0285 41.3226 18.3574 41.1065 18.6572 40.8461C19.1698 40.4236 19.5954 39.8831 19.9049 39.2543C20.2144 38.6303 20.3837 37.9671 20.4224 37.3038C20.4369 37.1859 20.4417 37.068 20.4369 36.955C20.432 36.3999 20.3401 35.8496 20.166 35.3288Z" fill="#FF5C00"/>
<path d="M17.3418 35.6728C16.8243 36.0953 16.4036 36.6357 16.0941 37.2646C15.7846 37.8885 15.6105 38.5518 15.5718 39.2199C15.2526 39.215 14.9238 39.1266 14.6336 38.9694L8.15818 35.4812C7.09909 34.9113 6.69287 33.5455 7.24417 32.4352C7.51015 31.8997 7.9599 31.5066 8.50637 31.3298C9.0335 31.1578 9.59931 31.2118 10.0926 31.4821L10.465 31.6786C10.6536 31.826 10.8567 31.9537 11.0695 32.0667L16.481 34.9899C16.6164 35.0587 16.7518 35.1275 16.8872 35.1815C17.0613 35.324 17.2112 35.4861 17.3418 35.6728Z" fill="#FF5C00"/>
<path d="M22.6323 35.1176C22.521 35.0537 22.405 35.0046 22.2937 34.9506C22.405 35.0439 22.5307 35.1323 22.6613 35.2011L28.0825 38.1243C28.2324 38.2029 28.3871 38.2619 28.5467 38.3061L22.6323 35.1176ZM20.1659 35.3289C20.635 35.1765 21.0751 34.9555 21.4668 34.6754C20.9348 34.5477 20.3884 34.5133 19.8467 34.587C19.5759 34.6165 19.3002 34.6705 19.0343 34.754C19.0053 34.7589 18.9811 34.7688 18.9521 34.7786C18.4781 34.9309 18.0429 35.152 17.6463 35.4271C17.5399 35.5057 17.4384 35.5843 17.3417 35.6728C16.8242 36.0953 16.4035 36.6357 16.094 37.2645C15.7845 37.8885 15.6104 38.5517 15.5717 39.2199C15.5427 39.5982 15.562 39.9765 15.62 40.3548C15.6877 40.7773 15.8038 41.1851 15.9682 41.5683C16.0214 41.696 16.0795 41.8139 16.1423 41.9318C16.3406 42.32 16.5969 42.6835 16.8919 43.0029C16.829 42.6098 16.7227 42.2266 16.5776 41.8631C16.7323 41.8336 16.8871 41.7894 17.0418 41.7402C17.2595 41.6715 17.4674 41.5879 17.6705 41.4897C18.0284 41.3226 18.3572 41.1065 18.6571 40.8461C18.2121 40.1828 18.1203 39.2789 18.512 38.5075C18.7731 37.972 19.2277 37.579 19.7742 37.4021C19.9821 37.3333 20.2046 37.3039 20.4222 37.3039C20.6205 37.3039 20.8188 37.3333 21.0074 37.4021C20.8091 37.2744 20.6156 37.1221 20.4367 36.955C20.4319 36.3999 20.34 35.8496 20.1659 35.3289Z" fill="#FF5C00"/>
<path d="M28.7497 44.0837C28.4838 44.6192 28.034 45.0122 27.4875 45.1891C26.9556 45.3611 26.3898 45.307 25.8965 45.0417L19.4259 41.5486C19.1067 41.3767 18.8504 41.1359 18.657 40.8461C19.1696 40.4235 19.5952 39.8831 19.9047 39.2543C20.2142 38.6303 20.3834 37.9671 20.4221 37.3038C20.6204 37.3038 20.8187 37.3333 21.0073 37.4021C21.133 37.4856 21.2588 37.5642 21.3893 37.6379L26.8105 40.5562C27.0378 40.6741 27.2651 40.7822 27.5021 40.8559L27.8357 41.0377C28.89 41.6076 29.3059 42.9734 28.7497 44.0837Z" fill="#FF5C00"/>
<path d="M26.7189 23.9947C26.6947 23.8915 26.656 23.7884 26.6125 23.6901C26.9123 23.2185 27.0042 22.6387 26.8398 22.0885C26.7527 21.7937 26.6367 21.5137 26.4964 21.2533C26.1966 21.2779 25.8968 21.3466 25.6066 21.44C25.065 21.6267 24.6442 22.0492 24.4508 22.5749C24.3879 22.7272 24.3492 22.8893 24.3299 23.0563C24.3202 23.1497 24.3154 23.243 24.3154 23.3413C24.3202 23.6115 24.2622 23.8866 24.1413 24.1225L23.5803 25.2524C23.4981 25.4195 23.3965 25.5619 23.2708 25.6749C23.1547 25.7929 23.0338 25.8813 22.9081 25.9452L22.6711 26.068C22.8259 26.0532 22.9806 26.0336 23.1354 26.0188C23.295 26.0041 23.4497 26.0925 23.561 26.1957C23.677 26.3038 23.7302 26.4708 23.7351 26.6281C23.7351 26.6575 23.7302 26.687 23.7254 26.7116C23.7979 26.6379 23.885 26.574 23.9817 26.5396C24.1268 26.4905 24.3154 26.5249 24.446 26.6035C24.5814 26.6821 24.6781 26.8197 24.7216 26.967C24.7264 26.9867 24.7361 27.0014 24.741 27.0211C24.77 27.085 24.799 27.1488 24.8328 27.2127C24.8715 27.2815 24.9054 27.3552 24.9489 27.419C24.9973 27.4927 25.0553 27.5566 25.0988 27.6303C25.1085 27.645 25.1133 27.6598 25.123 27.6745L25.1327 27.6647L25.1472 27.6696C25.4905 27.3355 25.7759 26.9376 25.9983 26.5003L26.569 25.3409C26.6077 25.2721 26.6367 25.1984 26.6657 25.1296C26.8253 24.7611 26.9268 24.3779 26.9849 23.9849C26.8978 23.98 26.8059 23.9849 26.7189 23.9947Z" fill="#FF5C00"/>
<path d="M26.8399 22.0885C26.7528 21.7937 26.6367 21.5137 26.4965 21.2533C26.1967 21.2779 25.8968 21.3466 25.6067 21.44C25.065 21.6267 24.6443 22.0492 24.4509 22.5749C24.388 22.5847 24.3203 22.6044 24.2623 22.6289C24.2477 22.6289 24.2284 22.6387 24.2091 22.6437C24.1897 22.6486 24.1752 22.6584 24.1607 22.6633C24.1172 22.5749 24.0736 22.4914 24.0205 22.4177C23.7496 22.683 23.5127 23.0023 23.3144 23.3364C23.3144 23.3413 23.3096 23.3462 23.3047 23.3511C23.3047 23.3511 23.3047 23.3511 23.3047 23.356C23.2564 23.4199 23.2177 23.4936 23.1742 23.5673L22.5987 24.7267C22.5455 24.8348 22.4971 24.9478 22.4487 25.0608C22.4149 25.1443 22.381 25.2279 22.3617 25.3114C22.352 25.3261 22.3472 25.3409 22.3472 25.3605C22.3278 25.3998 22.3182 25.4391 22.3085 25.4833C22.2795 25.5669 22.2553 25.6602 22.236 25.7535C22.2311 25.7535 22.2311 25.7585 22.2311 25.7634C22.2263 25.783 22.2263 25.8027 22.2215 25.8223C22.2166 25.8371 22.2166 25.8518 22.2118 25.8715C22.2069 25.9108 22.2021 25.9501 22.1973 25.9894C22.1924 26.009 22.1876 26.0287 22.1828 26.0483C22.1779 26.068 22.1731 26.0876 22.1731 26.1073C22.1828 26.1073 22.1973 26.1073 22.2069 26.1024C22.3037 26.0975 22.4004 26.0925 22.5019 26.0827C22.7147 26.0631 22.9227 26.0385 23.1355 26.0188C23.2951 26.0041 23.4498 26.0925 23.561 26.1957C23.6771 26.3038 23.7303 26.4708 23.7351 26.6281C23.7351 26.6575 23.7303 26.687 23.7255 26.7116C23.798 26.6379 23.885 26.574 23.9818 26.5396C24.1268 26.4905 24.3155 26.5249 24.446 26.6035C24.5814 26.6821 24.6782 26.8197 24.7217 26.967C24.7265 26.9867 24.7362 27.0014 24.741 27.0211C24.77 27.085 24.7991 27.1488 24.8329 27.2127C24.8571 27.2618 24.8861 27.3109 24.9151 27.3601L24.8571 26.967C24.8329 26.8147 24.8329 26.6526 24.8571 26.4856C24.8813 26.3087 24.9345 26.1368 25.0167 25.9697L25.5777 24.8397C25.6986 24.599 25.8678 24.4025 26.0806 24.2502C26.1531 24.2011 26.2112 24.147 26.274 24.0881C26.4094 23.9702 26.5255 23.8375 26.6126 23.6901C26.9124 23.2185 27.0043 22.6387 26.8399 22.0885Z" fill="#FF5C00"/>
<path d="M22.1586 26.1072C22.1635 26.1072 22.1683 26.1072 22.178 26.1072C22.178 26.0827 22.1828 26.0679 22.1876 26.0483C22.1925 25.9893 22.2021 25.9304 22.2167 25.8714C22.2215 25.8517 22.2215 25.837 22.2263 25.8223C22.2312 25.8026 22.2312 25.783 22.236 25.7633C22.236 25.7584 22.236 25.7535 22.2408 25.7535C22.2602 25.6601 22.2844 25.5668 22.3134 25.4833C22.323 25.4391 22.3327 25.3998 22.3521 25.3605C22.3521 25.3408 22.3569 25.3261 22.3666 25.3113C22.3859 25.2278 22.4198 25.1443 22.4536 25.0608C22.502 24.9478 22.5503 24.8348 22.6035 24.7267L23.179 23.5672C23.2225 23.4935 23.2612 23.4198 23.3096 23.356C23.3096 23.3511 23.3096 23.3511 23.3096 23.3511C23.3144 23.3461 23.3193 23.3412 23.3193 23.3363C23.5175 23.0022 23.7545 22.6829 24.0253 22.4176C23.9818 22.3537 23.9431 22.3046 23.8899 22.2506C23.8609 22.2162 23.8319 22.1867 23.798 22.1572C23.7061 22.0688 23.6046 21.9951 23.4885 21.9361L19.6826 19.8825C19.4698 19.7744 19.2377 19.7106 19.0055 19.7106C18.8605 19.7106 18.7105 19.7351 18.5655 19.7843C18.1737 19.9071 17.8546 20.192 17.666 20.5703L17.1001 21.7003C16.7036 22.4962 16.9986 23.4788 17.7578 23.8915L21.5541 25.9353C21.7427 26.0384 21.9507 26.0974 22.1586 26.1072Z" fill="#FF5C00"/>
<path d="M26.8398 22.0885C26.7527 21.7937 26.6367 21.5137 26.4964 21.2533C26.1966 21.2779 25.8968 21.3466 25.6066 21.44C25.065 21.6267 24.6442 22.0492 24.4508 22.5749C24.3879 22.5847 24.3202 22.6044 24.2622 22.6289C24.2477 22.6289 24.2283 22.6387 24.209 22.6437C24.1897 22.6486 24.1752 22.6584 24.1606 22.6633C24.1848 22.7124 24.2042 22.7616 24.2235 22.8156C24.2525 22.8991 24.2912 22.9827 24.3299 23.0563C24.6974 23.7835 25.4857 24.2011 26.274 24.0881C26.361 24.0782 26.4432 24.0635 26.5303 24.0389C26.5883 24.0193 26.656 24.0045 26.7189 23.9947C26.6947 23.8915 26.656 23.7884 26.6125 23.6901C26.9123 23.2185 27.0042 22.6387 26.8398 22.0885Z" fill="#FF5C00"/>
<path d="M32.0626 28.3918L31.4968 29.5217C31.3082 29.905 30.989 30.185 30.5973 30.3127C30.2201 30.4306 29.8236 30.3962 29.4754 30.2096L25.6742 28.1559C25.4566 28.043 25.2777 27.8759 25.1375 27.6794L25.1471 27.6696C25.4905 27.3355 25.7758 26.9375 25.9983 26.5003L26.5689 25.3408C26.6076 25.2721 26.6366 25.1984 26.6656 25.1296C26.8252 24.7611 26.9268 24.3779 26.9848 23.9849C27.0428 23.9849 27.0912 23.9898 27.1444 23.9996C27.304 24.0242 27.4587 24.0733 27.6038 24.1568L31.4339 26.2153C32.1739 26.6379 32.4543 27.6008 32.0626 28.3918Z" fill="#FF5C00"/>
<path d="M31.1777 22.963L28.8757 21.7249C28.2664 21.3958 27.5942 21.2287 26.922 21.2287C26.8204 21.2287 26.714 21.2336 26.6076 21.2435C26.5689 21.2435 26.5351 21.2484 26.4964 21.2533C26.4335 21.1354 26.3707 21.0273 26.2981 20.9192C26.2014 20.7669 26.0853 20.6195 25.9693 20.4819L25.9499 20.4623C25.8871 20.3886 25.8242 20.3198 25.7517 20.2461C25.6743 20.1675 25.5872 20.0889 25.505 20.0152C25.4518 19.971 25.3986 19.9268 25.3406 19.8875C25.3116 19.858 25.2777 19.8384 25.2439 19.8138C25.181 19.7647 25.1181 19.7204 25.0504 19.6762C24.9585 19.6173 24.857 19.5583 24.7554 19.4994L22.3906 18.2318C22.8259 17.8044 23.324 17.5538 23.7399 17.4114C25.0746 16.9348 26.6753 17.1068 28.1116 17.8879C29.5721 18.6691 30.636 19.9415 31.0423 21.3761C31.1632 21.8035 31.2502 22.3587 31.1777 22.963Z" fill="#FF5C00"/>
<path d="M13.0185 50.0775C13.0137 50.0726 13.0089 50.0677 13.004 50.0579C12.9315 50.0137 12.8589 49.9695 12.7816 49.9351C12.7332 49.9105 12.68 49.8859 12.6317 49.8614C12.6171 49.8516 12.6123 49.8516 12.6075 49.8466C12.6075 49.8466 12.6075 49.8466 12.5978 49.8417C12.4962 49.7975 12.3947 49.7582 12.2931 49.714C12.1819 49.6649 12.0755 49.6157 11.9691 49.5666C11.9546 49.5568 11.8724 49.5273 11.9159 49.542C11.9014 49.5371 11.8869 49.5322 11.8821 49.5273C11.5532 49.3897 11.1809 49.2473 10.9245 48.9771L11.0503 49.7582C11.06 49.8172 11.06 49.8761 11.06 49.9645C11.0696 50.2298 11.0068 50.5001 10.8859 50.7408L10.3249 51.8708C10.204 52.1164 10.0347 52.3129 9.82193 52.4652C9.74939 52.5095 9.69136 52.5635 9.62849 52.6225C9.45439 52.7748 9.31415 52.9614 9.20776 53.158C8.97563 53.6001 8.91276 54.1209 9.06268 54.622C9.14972 54.9217 9.26579 55.1968 9.40603 55.4621C9.7107 55.4327 10.0057 55.3639 10.3007 55.2656C10.7891 55.1035 11.176 54.7448 11.3936 54.2879C11.5339 54.2585 11.6645 54.2142 11.795 54.1504C11.8192 54.2044 11.8482 54.2437 11.8821 54.2929C12.1481 54.0423 12.3705 53.7524 12.564 53.438C12.564 53.4331 12.5688 53.4331 12.5688 53.4282C12.6317 53.3299 12.6849 53.2267 12.7429 53.1187L13.3039 51.9838C13.3571 51.8806 13.4006 51.7725 13.4441 51.6693C13.4828 51.5858 13.5166 51.4974 13.5408 51.409C13.6279 51.1633 13.6907 50.9078 13.7198 50.6524C13.7246 50.6376 13.7294 50.618 13.7294 50.5983C13.7343 50.5541 13.7391 50.5099 13.7439 50.4657C13.4344 50.4902 13.1781 50.3428 13.0185 50.0775Z" fill="#FF5C00"/>
<path d="M18.7975 55.02L18.2317 56.1549C18.0431 56.5332 17.7239 56.8132 17.337 56.936C16.9646 57.0638 16.5729 57.0245 16.2247 56.8476L12.4091 54.7842C12.3221 54.7399 12.2447 54.6859 12.1673 54.622C12.1335 54.5975 12.0948 54.5631 12.0609 54.5287C12.0222 54.4943 11.9884 54.455 11.9642 54.4206C11.9303 54.3862 11.9013 54.342 11.8723 54.3027C12.1383 54.0521 12.3608 53.7623 12.5542 53.4478C12.5542 53.4429 12.559 53.4429 12.559 53.438C12.6219 53.3397 12.6751 53.2366 12.7331 53.1285L13.2941 51.9936C13.3473 51.8904 13.3908 51.7823 13.4343 51.6792C13.473 51.5957 13.5069 51.5072 13.5311 51.4188C13.6181 51.1731 13.681 50.9177 13.71 50.6622C13.7148 50.6475 13.7197 50.6278 13.7197 50.6082C13.9325 50.6229 14.1452 50.6818 14.3435 50.785L18.1446 52.8288C18.9039 53.2415 19.194 54.2241 18.7975 55.02Z" fill="#FF5C00"/>
<path d="M13.0184 50.0775C13.0136 50.0725 13.0087 50.0676 13.0039 50.0578C12.9314 50.0136 12.8588 49.9694 12.7815 49.935C12.7331 49.9104 12.6799 49.8858 12.6315 49.8613C12.617 49.8515 12.6122 49.8515 12.6074 49.8465C12.6074 49.8465 12.6074 49.8465 12.5977 49.8416C12.4961 49.7974 12.3946 49.7581 12.293 49.7139C12.1818 49.6648 12.0754 49.6156 11.969 49.5665C11.9545 49.5567 11.8723 49.5272 11.9158 49.5419C11.9013 49.537 11.8868 49.5321 11.882 49.5272C11.5338 49.3798 11.1324 49.2373 10.8809 48.9327C10.8422 48.9622 10.8035 48.9966 10.7648 49.0359C10.6826 49.1145 10.5956 49.2079 10.5182 49.2963C10.5134 49.3012 10.5085 49.3061 10.5037 49.3159C10.3586 49.4781 10.2329 49.6599 10.112 49.8465C10.1023 49.8613 10.0926 49.876 10.083 49.8908C10.0249 49.9988 9.96206 50.1069 9.90403 50.215L9.34789 51.345C9.29469 51.4531 9.24149 51.5661 9.19313 51.6742C9.17379 51.738 9.14961 51.7921 9.1351 51.8559C9.02871 52.136 8.961 52.4308 8.91748 52.7255C8.97551 52.7304 9.02387 52.7304 9.08191 52.7206C9.10609 52.868 9.14961 53.0154 9.20764 53.1579C8.97551 53.6 8.91264 54.1208 9.06256 54.6219C9.14961 54.9216 9.26567 55.1967 9.40592 55.462C9.71059 55.4326 10.0056 55.3638 10.3006 55.2655C10.789 55.1034 11.1759 54.7447 11.3935 54.2878C11.4854 54.0913 11.5483 53.8801 11.5725 53.6541C11.587 53.5607 11.587 53.4674 11.587 53.3691C11.5821 53.1038 11.6402 52.8287 11.7659 52.588L12.322 51.458C12.4429 51.2222 12.617 51.0158 12.8443 50.8586C12.8927 50.8242 12.9362 50.7947 12.9846 50.7702L13.5987 50.4607C13.3521 50.441 13.1538 50.2985 13.0184 50.0775Z" fill="#FF5C00"/>
<path d="M10.7552 49.0458C10.673 49.1244 10.5859 49.2177 10.5085 49.3062C10.5037 49.3111 10.4989 49.316 10.494 49.3258C10.349 49.4879 10.2232 49.6697 10.1023 49.8564C10.0926 49.8711 10.083 49.8859 10.0733 49.9006C10.0153 50.0087 9.9524 50.1168 9.89437 50.2249L9.33823 51.3549C9.28503 51.4629 9.23184 51.5759 9.18348 51.684C9.16413 51.7479 9.13995 51.8019 9.12545 51.8658C9.01905 52.1458 8.95135 52.4406 8.90783 52.7354C8.87397 52.7354 8.84012 52.7354 8.8111 52.7305H8.79176C8.72889 52.7207 8.67086 52.7108 8.6225 52.6961C8.55963 52.6814 8.5016 52.6617 8.45324 52.647C8.39521 52.6224 8.33717 52.5978 8.28881 52.5684L4.46836 50.5098C3.72362 50.0873 3.44313 49.1244 3.83001 48.3285L4.39582 47.1985C4.58443 46.8202 4.9036 46.5353 5.29532 46.4124C5.4404 46.3633 5.59032 46.3387 5.7354 46.3387C5.97236 46.3387 6.20933 46.4026 6.42211 46.5156L10.2232 48.5643C10.436 48.6822 10.6198 48.8443 10.7552 49.0458Z" fill="#FF5C00"/>
<path d="M13.0185 50.0775C13.0137 50.0725 13.0088 50.0676 13.004 50.0578C12.9315 50.0136 12.8589 49.9694 12.7815 49.935C12.7332 49.9104 12.68 49.8858 12.6316 49.8613C12.6171 49.8515 12.6123 49.8515 12.6074 49.8465C12.6074 49.8465 12.6074 49.8465 12.5978 49.8416C12.4962 49.7974 12.3947 49.7581 12.2931 49.7139C12.1819 49.6648 12.0755 49.6156 11.9691 49.5665C11.9546 49.5567 11.8724 49.5272 11.9159 49.5419C11.9014 49.537 11.8869 49.5321 11.882 49.5272C11.5339 49.3798 11.1325 49.2373 10.881 48.9327C10.8423 48.9622 10.8036 48.9966 10.7649 49.0359C10.6827 49.1145 10.5957 49.2079 10.5183 49.2963C10.5135 49.3012 10.5086 49.3061 10.5038 49.3159C10.3587 49.4781 10.233 49.6599 10.1121 49.8465C10.1024 49.8613 10.0927 49.876 10.0831 49.8908C10.025 49.9988 9.96215 50.1069 9.90412 50.215L9.34798 51.345C9.29478 51.4531 9.24158 51.5661 9.19322 51.6742C9.17388 51.738 9.1497 51.7921 9.13519 51.8559C9.12068 51.9051 9.11101 51.9444 9.10134 51.9935C9.09167 52.023 9.08683 52.0475 9.082 52.077C9.07232 52.1212 9.06749 52.1704 9.06265 52.2244C9.05781 52.2785 9.05298 52.3374 9.05298 52.3914C9.05298 52.3964 9.05298 52.3964 9.05298 52.4013V52.4209C9.05298 52.4848 9.05781 52.5585 9.06749 52.6224L9.082 52.7206C9.10618 52.868 9.1497 53.0154 9.20773 53.1579C9.37699 53.5607 9.69133 53.9095 10.1072 54.1306C10.3926 54.2731 10.6827 54.3419 10.9729 54.3419C11.1131 54.3419 11.2582 54.3271 11.3936 54.2878C11.5339 54.2584 11.6644 54.2142 11.795 54.1503C12.0997 53.998 12.3705 53.7572 12.5639 53.4379C12.5639 53.433 12.5688 53.433 12.5688 53.4281C12.6316 53.3298 12.6848 53.2267 12.7429 53.1186L13.3038 51.9837C13.357 51.8805 13.4006 51.7724 13.4441 51.6692C13.4828 51.5857 13.5166 51.4973 13.5408 51.4089C13.6278 51.1632 13.6907 50.9077 13.7197 50.6523C13.7246 50.6375 13.7294 50.6179 13.7294 50.5982C13.7342 50.554 13.7391 50.5098 13.7439 50.4656C13.4344 50.4901 13.1781 50.3428 13.0185 50.0775Z" fill="#FF5C00"/>
<path d="M11.6691 53.9047C11.6401 53.8212 11.6063 53.7377 11.5627 53.664C11.1952 52.9319 10.4069 52.5193 9.61865 52.6323C9.5316 52.6421 9.45423 52.6568 9.36718 52.6814C9.27046 52.7109 9.17374 52.7305 9.07218 52.7305C9.09636 52.8779 9.13988 53.0253 9.19792 53.1678C8.96579 53.6099 8.90292 54.1307 9.05284 54.6318C9.13988 54.9315 9.25595 55.2066 9.39619 55.4719C9.70086 55.4425 9.99586 55.3737 10.2909 55.2754C10.7793 55.1133 11.1662 54.7546 11.3838 54.2977C11.524 54.2683 11.6546 54.224 11.7852 54.1602C11.7417 54.0767 11.703 53.9981 11.6691 53.9047ZM8.81104 52.7305C8.84005 52.7354 8.8739 52.7403 8.90776 52.7403V52.7354C8.8739 52.7354 8.84005 52.7354 8.81104 52.7305Z" fill="#FF5C00"/>
<path d="M13.3328 58.4001C11.9884 59.3876 9.86054 59.4662 7.96965 58.4492C6.07394 57.4224 4.89879 55.5751 4.88428 53.8507L7.01696 54.9954C7.62146 55.3246 8.29367 55.4916 8.96587 55.4916C9.06743 55.4916 9.17866 55.4867 9.28022 55.4769C9.3189 55.4769 9.35759 55.4769 9.39628 55.472C9.44464 55.5555 9.493 55.6439 9.5462 55.7225C9.60423 55.8208 9.6671 55.9141 9.7348 56.0026C9.78316 56.0664 9.83636 56.1352 9.88955 56.1942C9.95242 56.2777 10.025 56.3563 10.0975 56.4251C10.1894 56.5283 10.2909 56.6216 10.4022 56.715C10.436 56.7444 10.4747 56.7788 10.5182 56.8132C10.5714 56.8574 10.6295 56.8967 10.6875 56.936C10.7359 56.9753 10.7842 57.0097 10.8374 57.0392C10.9341 57.1031 11.0357 57.162 11.1372 57.221L13.3328 58.4001Z" fill="#FF5C00"/>
<path d="M8.70475 57.9874C8.4823 57.9874 8.25984 57.9333 8.04706 57.8252C7.33132 57.4568 7.05084 56.5675 7.41354 55.8453L25.6937 19.3864C26.0564 18.6593 26.9317 18.3694 27.6474 18.7428C28.3632 19.1113 28.6436 20.0005 28.2809 20.7227L9.99597 57.1816C9.73966 57.6926 9.23188 57.9874 8.70475 57.9874Z" fill="#FF5C00"/>
</g>
<path d="M85.864 62L94.696 28.4H105.736L114.568 62H108.04L106.216 54.608H94.216L92.392 62H85.864ZM95.704 48.752H104.728L100.648 32.384H99.784L95.704 48.752ZM128.67 62.672C125.566 62.672 123.022 62 121.038 60.656C119.054 59.312 117.854 57.392 117.438 54.896L123.006 53.456C123.23 54.576 123.598 55.456 124.11 56.096C124.654 56.736 125.31 57.2 126.078 57.488C126.878 57.744 127.742 57.872 128.67 57.872C130.078 57.872 131.118 57.632 131.79 57.152C132.462 56.64 132.798 56.016 132.798 55.28C132.798 54.544 132.478 53.984 131.838 53.6C131.198 53.184 130.174 52.848 128.766 52.592L127.422 52.352C125.758 52.032 124.238 51.6 122.862 51.056C121.486 50.48 120.382 49.696 119.55 48.704C118.718 47.712 118.302 46.432 118.302 44.864C118.302 42.496 119.166 40.688 120.894 39.44C122.622 38.16 124.894 37.52 127.71 37.52C130.366 37.52 132.574 38.112 134.334 39.296C136.094 40.48 137.246 42.032 137.79 43.952L132.174 45.68C131.918 44.464 131.39 43.6 130.59 43.088C129.822 42.576 128.862 42.32 127.71 42.32C126.558 42.32 125.678 42.528 125.07 42.944C124.462 43.328 124.158 43.872 124.158 44.576C124.158 45.344 124.478 45.92 125.118 46.304C125.758 46.656 126.622 46.928 127.71 47.12L129.054 47.36C130.846 47.68 132.462 48.112 133.902 48.656C135.374 49.168 136.526 49.92 137.358 50.912C138.222 51.872 138.654 53.184 138.654 54.848C138.654 57.344 137.742 59.28 135.918 60.656C134.126 62 131.71 62.672 128.67 62.672ZM143.954 62V28.4H150.002V46.976H150.866L158.738 38.192H166.61L155.618 49.712L166.994 62H159.218L150.866 52.544H150.002V62H143.954Z" fill="black"/>
<path d="M168.552 62L177.384 28.4H188.424L197.256 62H190.728L188.904 54.608H176.904L175.08 62H168.552ZM178.392 48.752H187.416L183.336 32.384H182.472L178.392 48.752ZM204.187 62V43.184H198.139V38.192H204.187V33.776C204.187 32.144 204.667 30.848 205.627 29.888C206.619 28.896 207.899 28.4 209.467 28.4H215.707V33.392H211.579C210.683 33.392 210.235 33.872 210.235 34.832V38.192H216.475V43.184H210.235V62H204.187ZM221.157 62V38.192H227.109V40.88H227.973C228.325 39.92 228.901 39.216 229.701 38.768C230.533 38.32 231.493 38.096 232.581 38.096H235.461V43.472H232.485C230.949 43.472 229.685 43.888 228.693 44.72C227.701 45.52 227.205 46.768 227.205 48.464V62H221.157ZM240.188 62V38.192H246.236V62H240.188ZM243.212 35.408C242.124 35.408 241.196 35.056 240.428 34.352C239.692 33.648 239.324 32.72 239.324 31.568C239.324 30.416 239.692 29.488 240.428 28.784C241.196 28.08 242.124 27.728 243.212 27.728C244.332 27.728 245.26 28.08 245.996 28.784C246.732 29.488 247.1 30.416 247.1 31.568C247.1 32.72 246.732 33.648 245.996 34.352C245.26 35.056 244.332 35.408 243.212 35.408ZM264.122 62.672C261.818 62.672 259.722 62.192 257.834 61.232C255.978 60.272 254.506 58.88 253.418 57.056C252.33 55.232 251.786 53.024 251.786 50.432V49.76C251.786 47.168 252.33 44.96 253.418 43.136C254.506 41.312 255.978 39.92 257.834 38.96C259.722 38 261.818 37.52 264.122 37.52C266.394 37.52 268.346 37.92 269.978 38.72C271.61 39.52 272.922 40.624 273.914 42.032C274.938 43.408 275.61 44.976 275.93 46.736L270.074 47.984C269.946 47.024 269.658 46.16 269.21 45.392C268.762 44.624 268.122 44.016 267.29 43.568C266.49 43.12 265.482 42.896 264.266 42.896C263.05 42.896 261.946 43.168 260.954 43.712C259.994 44.224 259.226 45.008 258.65 46.064C258.106 47.088 257.834 48.352 257.834 49.856V50.336C257.834 51.84 258.106 53.12 258.65 54.176C259.226 55.2 259.994 55.984 260.954 56.528C261.946 57.04 263.05 57.296 264.266 57.296C266.09 57.296 267.466 56.832 268.394 55.904C269.354 54.944 269.962 53.696 270.218 52.16L276.074 53.552C275.658 55.248 274.938 56.8 273.914 58.208C272.922 59.584 271.61 60.672 269.978 61.472C268.346 62.272 266.394 62.672 264.122 62.672ZM288.455 62.672C286.759 62.672 285.239 62.384 283.895 61.808C282.551 61.2 281.479 60.336 280.679 59.216C279.911 58.064 279.527 56.672 279.527 55.04C279.527 53.408 279.911 52.048 280.679 50.96C281.479 49.84 282.567 49.008 283.943 48.464C285.351 47.888 286.951 47.6 288.743 47.6H295.271V46.256C295.271 45.136 294.919 44.224 294.215 43.52C293.511 42.784 292.391 42.416 290.855 42.416C289.351 42.416 288.231 42.768 287.495 43.472C286.759 44.144 286.279 45.024 286.055 46.112L280.487 44.24C280.871 43.024 281.479 41.92 282.311 40.928C283.175 39.904 284.311 39.088 285.719 38.48C287.159 37.84 288.903 37.52 290.951 37.52C294.087 37.52 296.567 38.304 298.391 39.872C300.215 41.44 301.127 43.712 301.127 46.688V55.568C301.127 56.528 301.575 57.008 302.471 57.008H304.391V62H300.359C299.175 62 298.199 61.712 297.431 61.136C296.663 60.56 296.279 59.792 296.279 58.832V58.784H295.367C295.239 59.168 294.951 59.68 294.503 60.32C294.055 60.928 293.351 61.472 292.391 61.952C291.431 62.432 290.119 62.672 288.455 62.672ZM289.511 57.776C291.207 57.776 292.583 57.312 293.639 56.384C294.727 55.424 295.271 54.16 295.271 52.592V52.112H289.175C288.055 52.112 287.175 52.352 286.535 52.832C285.895 53.312 285.575 53.984 285.575 54.848C285.575 55.712 285.911 56.416 286.583 56.96C287.255 57.504 288.231 57.776 289.511 57.776Z" fill="#FF5C00"/>
<defs>
<clipPath id="clip0_2008_5">
<rect width="55" height="68" fill="white" transform="translate(0 11)"/>
</clipPath>
</defs>
</svg>
